<svg width="20" height="20" viewBox="0 0 20 20" fill="none" xmlns="http://www.w3.org/2000/svg">
<g clip-path="url(#clip0_100_202)">
<path d="M19.1667 9.17508L15 9.16675C14.5417 9.16675 14.1667 9.54175 14.1667 10.0001V17.5001C14.1667 17.9584 14.5417 18.3334 15 18.3334H19.1667C19.625 18.3334 20 17.9584 20 17.5001V10.0001C20 9.54175 19.625 9.17508 19.1667 9.17508ZM19.1667 16.6667H15V10.8334H19.1667V16.6667ZM16.6667 1.66675H1.66667C0.741667 1.66675 0 2.40841 0 3.33341V13.3334C0 14.2501 0.741667 15.0001 1.66667 15.0001H7.5V16.6667H5.83333V18.3334H12.5V16.6667H10.8333V15.0001H12.5V13.3334H1.66667V3.33341H16.6667V7.50008H18.3333V3.33341C18.3333 2.40841 17.5833 1.66675 16.6667 1.66675ZM9.975 7.50008L9.16667 5.00008L8.35833 7.50008H5.83333L7.89167 8.96675L7.10833 11.3917L9.16667 9.89175L11.225 11.3917L10.4417 8.96675L12.5 7.50008H9.975Z" fill="#7D889E"/>
</g>
<defs>
<clipPath id="clip0_100_202">
<rect width="20" height="20" fill="white"/>
</clipPath>
</defs>
</svg>
