<svg width="274" height="103" viewBox="0 0 274 103" fill="none" xmlns="http://www.w3.org/2000/svg">
<mask id="mask0_100_916" style="mask-type:alpha" maskUnits="userSpaceOnUse" x="0" y="0" width="274" height="103">
<rect width="274" height="103" rx="18" fill="#D9D9D9"/>
</mask>
<g mask="url(#mask0_100_916)">
<mask id="mask1_100_916" style="mask-type:alpha" maskUnits="userSpaceOnUse" x="-96" y="20" width="496" height="83">
<g opacity="0.95">
<rect x="-96" y="20.0071" width="495.83" height="82.9928" rx="24" fill="url(#paint0_linear_100_916)"/>
<rect x="-95.5" y="20.5071" width="494.83" height="81.9928" rx="23.5" stroke="url(#paint1_linear_100_916)" stroke-opacity="0.7"/>
</g>
</mask>
<g mask="url(#mask1_100_916)">
<path opacity="0.25" d="M-96 75.6761L-90.112 79.1163C-84.1896 82.6211 -72.2415 89.4046 -60.5344 87.7411C-48.7929 86.0129 -37.1202 75.6761 -25.0688 74.82C-13.3617 73.8994 -1.6546 82.6211 10.3968 83.4287C22.0695 84.2362 33.811 77.4527 45.5181 73.9479C57.4662 70.5076 69.2766 70.5076 80.9837 68.7795C92.8974 67.1159 104.742 63.5626 116.449 61.899C128.294 60.1708 140.208 60.1708 151.915 63.611C163.725 67.1159 175.673 73.8994 187.381 73.9479C199.122 73.8994 210.795 67.1159 222.846 65.3392C234.553 63.5626 246.26 67.1159 258.312 68.7795C269.984 70.5076 281.726 70.5076 293.433 73.0918C305.381 75.6761 317.192 80.8445 328.899 82.5726C340.812 84.2362 352.657 82.6211 364.364 83.4287C376.209 84.2362 388.123 87.7895 393.976 89.4531L399.83 91.1813V113.374H393.942C388.019 113.374 376.071 113.374 364.364 113.374C352.623 113.374 340.95 113.374 328.899 113.374C317.192 113.374 305.484 113.374 293.433 113.374C281.76 113.374 270.019 113.374 258.312 113.374C246.364 113.374 234.553 113.374 222.846 113.374C210.932 113.374 199.088 113.374 187.381 113.374C175.536 113.374 163.622 113.374 151.915 113.374C140.105 113.374 128.156 113.374 116.449 113.374C104.708 113.374 93.0351 113.374 80.9837 113.374C69.2766 113.374 57.5695 113.374 45.5181 113.374C33.8454 113.374 22.1039 113.374 10.3968 113.374C-1.5513 113.374 -13.3617 113.374 -25.0688 113.374C-36.9825 113.374 -48.8273 113.374 -60.5344 113.374C-72.3792 113.374 -84.2929 113.374 -90.1465 113.374H-96V75.6761Z" fill="url(#paint2_linear_100_916)"/>
<path d="M-96 75.6578L-90.0569 79.0938C-84.079 82.5943 -72.0189 89.3695 -60.2022 87.708C-48.3506 85.9819 -36.5686 75.6578 -24.4043 74.8028C-12.5876 73.8833 -0.7708 82.5943 11.3935 83.4009C23.1755 84.2075 35.027 77.4322 46.8438 73.9317C58.9039 70.4957 70.8249 70.4957 82.6416 68.7696C94.6669 67.1081 106.623 63.5592 118.439 61.8976C130.395 60.1716 142.421 60.1716 154.237 63.6076C166.158 67.1081 178.218 73.8833 190.035 73.9317C201.887 73.8833 213.669 67.1081 225.833 65.3336C237.65 63.5592 249.467 67.1081 261.631 68.7696C273.413 70.4957 285.264 70.4957 297.081 73.0767C309.141 75.6578 321.062 80.8198 332.879 82.5459C344.904 84.2075 356.86 82.5943 368.677 83.4009C380.633 84.2075 392.658 87.7564 398.566 89.4179L404.475 91.144" stroke="url(#paint3_linear_100_916)" stroke-width="3" stroke-linecap="round"/>
</g>
</g>
<defs>
<linearGradient id="paint0_linear_100_916" x1="-96" y1="20.0071" x2="-68.9742" y2="181.469" gradientUnits="userSpaceOnUse">
<stop stop-color="#484F75"/>
<stop offset="1" stop-color="#393F5F"/>
</linearGradient>
<linearGradient id="paint1_linear_100_916" x1="-96" y1="20.0071" x2="-68.9742" y2="181.469" gradientUnits="userSpaceOnUse">
<stop stop-color="#5F6791"/>
<stop offset="1" stop-color="#272C43"/>
</linearGradient>
<linearGradient id="paint2_linear_100_916" x1="153.831" y1="60.7627" x2="153.831" y2="113.374" gradientUnits="userSpaceOnUse">
<stop stop-color="#88FFBF"/>
<stop offset="1" stop-color="#3EFE97" stop-opacity="0"/>
</linearGradient>
<linearGradient id="paint3_linear_100_916" x1="120.679" y1="60.6586" x2="122.236" y2="92.0059" gradientUnits="userSpaceOnUse">
<stop stop-color="#C7C7FF"/>
<stop offset="0.0001" stop-color="#88FFBF"/>
<stop offset="1" stop-color="#5EB485"/>
</linearGradient>
</defs>
</svg>
