<svg width="200" height="29" viewBox="0 0 200 29" fill="none" xmlns="http://www.w3.org/2000/svg">
<g clip-path="url(#clip0_374_511)">
<path d="M98.1406 14.82L97.3509 15.9956C96.1546 15.1442 94.7214 14.6896 93.253 14.6956C89.9168 14.7362 86.5933 17.0467 86.474 21.0735C86.5222 24.59 89.343 27.3702 93.253 27.4514C94.7214 27.4575 96.1546 27.0028 97.3509 26.1515L98.1406 27.3219C96.7102 28.3289 95.0023 28.8666 93.253 28.8605C88.33 28.8555 85.0547 25.3263 85.0547 21.0735C85.0547 16.8207 88.33 13.2789 93.253 13.2789C95.0027 13.2726 96.711 13.8112 98.1406 14.82Z" fill="#96A3BC"/>
<path d="M108.752 13.624L114.17 28.4948H112.678L111.207 24.4553H104.566L103.083 28.4948H101.59L107.018 13.624H108.752ZM105.076 23.0538H110.7L107.887 15.3429L105.076 23.0538Z" fill="#96A3BC"/>
<path d="M119.665 13.624L125.251 21.731L130.836 13.624H132.614V28.4948H131.21V15.546L125.248 24.209L119.282 15.546V28.4948H117.875V13.624H119.665Z" fill="#96A3BC"/>
<path d="M141.546 13.624C144.674 13.624 147.223 15.9091 147.223 19.0397C147.223 22.1702 144.684 24.4553 141.546 24.4553H138.387V28.4948H136.98V13.624H141.546ZM138.387 23.0487H141.546C143.909 23.0487 145.819 21.4085 145.819 19.0397C145.819 16.6708 143.909 15.0306 141.546 15.0306H138.387V23.0487Z" fill="#96A3BC"/>
<path d="M155.969 13.624L161.387 28.4948H159.894L158.431 24.4553H151.782L150.307 28.4948H148.816L154.235 13.624H155.969ZM152.292 23.0538H157.924L155.103 15.3429L152.292 23.0538Z" fill="#96A3BC"/>
<path d="M166.498 13.624V28.4948H165.092V13.624H166.498Z" fill="#96A3BC"/>
<path d="M183.906 15.2922L182.992 16.3408C181.716 15.244 180.082 14.6533 178.399 14.6803C174.517 14.6803 171.615 17.1634 171.615 21.0607C171.615 24.5721 174.623 27.4437 178.399 27.4437C179.691 27.4437 181.606 27.0629 182.634 26.1387L182.588 21.4441H179.442V19.974H183.987L184.051 26.6972C182.916 27.9312 180.923 28.863 178.399 28.863C173.9 28.863 170.203 25.3871 170.203 21.0683C170.203 16.8079 173.466 13.2762 178.391 13.2762C180.416 13.2434 182.38 13.9616 183.906 15.2922Z" fill="#96A3BC"/>
<path d="M189.191 13.624L198.585 26.1208V13.624H199.992V28.4948H198.572L189.178 15.9446V28.4948H187.771V13.624H189.191Z" fill="#96A3BC"/>
<path d="M14.7902 7.03305L15.9962 4.95109L20.3125 12.4004L20.3658 12.4918L21.4372 14.3554L22.4935 12.5071L24.9004 8.2873L26.5177 9.49331L26.6091 4.06245L24.3748 5.1796L24.8522 5.47666L23.1053 8.12481L22.8768 8.10703L21.4271 10.646L20.5004 9.05407L16.3212 1.87893L15.9378 1.22388L15.9201 1.26958L14.0488 4.57024C14.4551 5.3751 14.7902 6.01746 14.7902 6.01746V7.03305Z" fill="#A1AECE"/>
<path d="M42.329 26.4765L42.1944 26.6644L36.8296 17.6028C36.8296 17.6028 33.1532 11.2553 30.665 6.93908L30.2917 6.29418L23.7716 17.5977C23.7716 17.6129 23.7513 17.6282 23.7437 17.6459L23.1648 18.6615L21.4866 21.5813L21.2581 21.1903L17.117 14.1218L16.7006 13.4566L12.2803 21.17L12.2498 21.2183L8.83233 27.1823L3.24659 27.2026L10.409 14.6982C10.4174 14.6807 10.4267 14.6638 10.437 14.6474L16.3807 4.26808V3.22456C16.3807 3.22456 16.043 2.58474 15.6368 1.77734L8.83487 13.7308L8.80694 13.7791L0.654297 27.9288H10.5207L13.8519 22.1374C13.8621 22.121 13.8715 22.104 13.8798 22.0866L16.7412 17.0899L19.6636 22.1145L21.1032 24.6535L21.4866 25.3263L25.3433 18.5727C25.3535 18.5563 25.3629 18.5393 25.3712 18.5219L30.2613 9.97823L35.2376 18.5346L40.1379 26.9589L42.5397 26.7228L42.329 26.4765Z" fill="#A1AECE"/>
<path d="M53.9936 13.6038L59.4118 28.4847H56.1975L55.0346 25.2907H49.7332L48.5704 28.4847H45.3535L50.7793 13.6038H53.9936ZM50.8402 22.254H53.9276L52.3839 18.0267L50.8402 22.254Z" fill="#3B5998"/>
<path d="M65.1932 13.6038V28.4847H62.1465V13.6038H65.1932Z" fill="#3B5998"/>
<path d="M43.452 27.8322V27.8703L43.3276 28.4949C39.4938 28.4949 34.718 28.4187 33.3977 28.3959L29.4877 22.0155L28.043 24.5392L27.487 25.5091L29.6654 25.5751L30.1529 25.7274L24.1457 28.0938L23.7344 27.9059L25.9687 24.4884C26.6517 23.2799 28.7463 19.6314 29.4166 18.4685C29.4318 18.4939 29.4471 18.5193 29.4648 18.5447L29.7441 18.9941L31.6331 22.0408C32.6487 23.6912 33.6389 25.3542 34.6037 27.0299L40.6211 27.0096L40.55 26.8852L42.5202 26.6491L43.2185 27.4616L43.452 27.8322Z" fill="#A1AECE"/>
<path d="M43.4495 27.8297H43.4164C39.5902 27.8297 34.8931 27.751 33.5754 27.7307L29.5486 20.9897L27.5479 24.4833L27.5834 24.5011L29.6679 25.5802L29.5536 25.6233L23.7343 27.9084L24.1634 23.2392L24.2904 21.8936L26.0372 23.4652C26.7176 22.2541 27.3473 21.1395 27.4641 20.9262C27.6723 20.5682 28.8148 18.6005 29.4953 17.4351C29.513 17.4605 29.5283 17.4884 29.546 17.5164L29.8253 17.9632C30.6479 19.2835 31.5036 20.6647 31.7169 21.01C32.7324 22.6603 33.7226 24.3234 34.6875 25.9991L40.2097 25.9813L35.2283 17.4224L30.2519 8.86863L25.3618 17.4047C25.3535 17.4229 25.3442 17.4407 25.3339 17.458L21.5 24.1736L21.4772 24.2117L21.0938 23.5363L19.6542 20.9973L16.7318 15.9955L13.8704 20.977C13.8626 20.9947 13.8533 21.0117 13.8425 21.0278L9.87407 27.9287L0.104098 27.9439H0L0.363073 27.3117L7.19545 15.3202L7.22338 15.2719L15.8965 0.0330067L15.9168 0L16.2977 0.652516L20.4768 7.82765L21.4035 9.42213L23.0463 6.55309L20.8627 5.62637L26.6745 2.83349L26.5297 8.85086L24.6585 7.45189L22.4725 11.2832L21.4162 13.1316L20.3473 11.268L20.294 11.1715L15.96 3.72721L8.82039 16.1885L8.795 16.2393L3.23211 26.093L8.81785 26.0753L12.2429 20.1112C12.2519 20.0944 12.2621 20.0783 12.2734 20.063L16.6887 12.3496L17.1051 13.0249L21.2487 20.0833L21.4772 20.4768L23.1554 17.5443L23.7343 16.5287L23.7648 16.5033L30.2823 5.20236C30.4017 5.41055 30.5362 5.62637 30.6556 5.84726L36.8151 16.5033L43.1981 27.4209L43.4215 27.8068L43.4495 27.8297Z" fill="#3B5998"/>
<path d="M81.5027 13.6038V28.4821H78.7911L71.9409 19.4662V28.6116H68.9043V13.6038H71.6185L78.4686 22.6222V13.6038H81.5027Z" fill="#3B5998"/>
</g>
<defs>
<clipPath id="clip0_374_511">
<rect width="200" height="28.8554" fill="white"/>
</clipPath>
</defs>
</svg>
