<svg width="16" height="19" viewBox="0 0 16 19" fill="none" xmlns="http://www.w3.org/2000/svg">
<path fill-rule="evenodd" clip-rule="evenodd" d="M6.46752 1C6.88931 1.14181 7.06155 1.44059 7.03211 1.87663C7.01955 2.06284 7.03005 2.25055 7.03005 2.43151C7.34382 2.51735 7.65253 2.58354 7.94886 2.6857C9.894 3.35647 11.2284 5.20174 11.2456 7.257C11.2575 8.68612 11.2517 10.1154 11.2464 11.5446C11.2452 11.8776 11.3521 12.1135 11.6555 12.2939C12.4644 12.7747 12.8283 13.744 12.5745 14.6534C12.3265 15.5422 11.4997 16.1839 10.5705 16.1855C7.74137 16.1901 4.9123 16.1901 2.08318 16.1855C1.14936 16.184 0.311924 15.5284 0.0745194 14.6363C-0.172027 13.7099 0.205223 12.7565 1.02812 12.2751C1.29952 12.1163 1.40636 11.8964 1.40594 11.597C1.40401 10.1796 1.40204 8.76202 1.40589 7.34453C1.41133 5.31135 2.61181 3.53011 4.49117 2.76385C4.66931 2.69118 4.85449 2.6337 5.03986 2.58148C5.22476 2.52949 5.41406 2.49297 5.6239 2.44449C5.6239 2.2588 5.63445 2.06687 5.62179 1.87653C5.59268 1.44063 5.76398 1.14135 6.18643 1.00005C6.28 1 6.37376 1 6.46752 1ZM6.30907 14.7812C7.70921 14.7812 9.1094 14.782 10.5096 14.7807C10.8646 14.7803 11.1287 14.5855 11.22 14.2655C11.3087 13.9547 11.189 13.6439 10.8893 13.4704C10.1577 13.0465 9.84238 12.3987 9.84248 11.5736C9.84262 10.1852 9.84599 8.79671 9.83943 7.40829C9.83821 7.15213 9.81622 6.8925 9.77023 6.64061C9.43095 4.78394 7.54648 3.50583 5.69853 3.87136C3.98068 4.21115 2.81419 5.62414 2.81166 7.37266C2.8096 8.8021 2.81982 10.2317 2.80763 11.661C2.80097 12.4356 2.47913 13.0497 1.79434 13.4517C1.70532 13.504 1.61756 13.5724 1.55506 13.6533C1.38357 13.8755 1.35198 14.125 1.47659 14.3798C1.60696 14.6464 1.82997 14.7801 2.12607 14.7804C3.5204 14.782 4.91473 14.7811 6.30907 14.7812Z" fill="#7D889E"/>
<path fill-rule="evenodd" clip-rule="evenodd" d="M4.77914 18.9999C4.73127 18.9792 4.68317 18.959 4.63564 18.9376C4.3394 18.8041 4.16823 18.4859 4.22599 18.1767C4.28684 17.8507 4.5557 17.5996 4.88485 17.5972C5.84549 17.59 6.80622 17.59 7.76681 17.5972C8.09587 17.5996 8.36435 17.8503 8.42562 18.1766C8.48366 18.4856 8.31274 18.8038 8.01631 18.9375C7.96877 18.959 7.92072 18.9792 7.8729 18.9999C6.84166 18.9999 5.81042 18.9999 4.77914 18.9999Z" fill="#7D889E"/>
<circle cx="12" cy="4" r="4" fill="url(#paint0_linear_100_284)"/>
<defs>
<linearGradient id="paint0_linear_100_284" x1="8.6506" y1="0.622222" x2="16.0861" y2="1.03621" gradientUnits="userSpaceOnUse">
<stop stop-color="#3B5998"/>
<stop offset="1" stop-color="#6BF3AA"/>
<stop offset="1" stop-color="#3EFE97"/>
</linearGradient>
</defs>
</svg>
