<svg width="274" height="108" viewBox="0 0 274 108" fill="none" xmlns="http://www.w3.org/2000/svg">
<mask id="mask0_100_900" style="mask-type:alpha" maskUnits="userSpaceOnUse" x="0" y="0" width="274" height="108">
<rect width="274" height="108" rx="18" fill="#D9D9D9"/>
</mask>
<g mask="url(#mask0_100_900)">
<mask id="mask1_100_900" style="mask-type:alpha" maskUnits="userSpaceOnUse" x="-96" y="20" width="496" height="88">
<g opacity="0.95">
<rect x="-96" y="20.9785" width="495.83" height="87.0216" rx="24" fill="url(#paint0_linear_100_900)"/>
<rect x="-95.5" y="21.4785" width="494.83" height="86.0216" rx="23.5" stroke="url(#paint1_linear_100_900)" stroke-opacity="0.7"/>
</g>
</mask>
<g mask="url(#mask1_100_900)">
<path opacity="0.25" d="M-96 79.3495L-90.112 82.9567C-84.1896 86.6316 -72.2415 93.7445 -60.5344 92.0001C-48.7929 90.1881 -37.1202 79.3495 -25.0688 78.4519C-13.3617 77.4866 -1.6546 86.6316 10.3968 87.4784C22.0695 88.3252 33.811 81.2123 45.5181 77.5374C57.4662 73.9302 69.2766 73.9302 80.9837 72.1181C92.8974 70.3737 104.742 66.648 116.449 64.9036C128.294 63.0916 140.208 63.0916 151.915 66.6988C163.725 70.3737 175.673 77.4866 187.381 77.5374C199.122 77.4866 210.795 70.3737 222.846 68.5109C234.553 66.648 246.26 70.3737 258.312 72.1181C269.984 73.9302 281.726 73.9302 293.433 76.6398C305.381 79.3495 317.192 84.7688 328.899 86.5808C340.812 88.3252 352.657 86.6316 364.364 87.4784C376.209 88.3252 388.123 92.051 393.976 93.7953L399.83 95.6074V118.878H393.942C388.019 118.878 376.071 118.878 364.364 118.878C352.623 118.878 340.95 118.878 328.899 118.878C317.192 118.878 305.484 118.878 293.433 118.878C281.76 118.878 270.019 118.878 258.312 118.878C246.364 118.878 234.553 118.878 222.846 118.878C210.932 118.878 199.088 118.878 187.381 118.878C175.536 118.878 163.622 118.878 151.915 118.878C140.105 118.878 128.156 118.878 116.449 118.878C104.708 118.878 93.0351 118.878 80.9837 118.878C69.2766 118.878 57.5695 118.878 45.5181 118.878C33.8454 118.878 22.1039 118.878 10.3968 118.878C-1.5513 118.878 -13.3617 118.878 -25.0688 118.878C-36.9825 118.878 -48.8273 118.878 -60.5344 118.878C-72.3792 118.878 -84.2929 118.878 -90.1465 118.878H-96V79.3495Z" fill="url(#paint2_linear_100_900)"/>
<path d="M-96 79.3303L-90.0569 82.9331C-84.079 86.6036 -72.0189 93.7077 -60.2022 91.9655C-48.3506 90.1556 -36.5686 79.3303 -24.4043 78.4338C-12.5876 77.4697 -0.7708 86.6036 11.3935 87.4493C23.1755 88.295 35.027 81.1909 46.8438 77.5204C58.9039 73.9176 70.8249 73.9176 82.6416 72.1078C94.6669 70.3656 106.623 66.6444 118.439 64.9022C130.395 63.0923 142.421 63.0923 154.237 66.6951C166.158 70.3656 178.218 77.4697 190.035 77.5204C201.887 77.4697 213.669 70.3656 225.833 68.505C237.65 66.6444 249.467 70.3656 261.631 72.1078C273.413 73.9176 285.264 73.9176 297.081 76.624C309.141 79.3303 321.062 84.743 332.879 86.5528C344.904 88.295 356.86 86.6036 368.677 87.4493C380.633 88.295 392.658 92.0162 398.566 93.7584L404.475 95.5683" stroke="url(#paint3_linear_100_900)" stroke-width="3" stroke-linecap="round"/>
</g>
</g>
<defs>
<linearGradient id="paint0_linear_100_900" x1="-96" y1="20.9785" x2="-66.367" y2="189.821" gradientUnits="userSpaceOnUse">
<stop stop-color="#484F75"/>
<stop offset="1" stop-color="#393F5F"/>
</linearGradient>
<linearGradient id="paint1_linear_100_900" x1="-96" y1="20.9785" x2="-66.367" y2="189.821" gradientUnits="userSpaceOnUse">
<stop stop-color="#5F6791"/>
<stop offset="1" stop-color="#272C43"/>
</linearGradient>
<linearGradient id="paint2_linear_100_900" x1="153.831" y1="63.7122" x2="153.831" y2="118.878" gradientUnits="userSpaceOnUse">
<stop stop-color="#ED58BA"/>
<stop offset="1" stop-color="white" stop-opacity="0"/>
</linearGradient>
<linearGradient id="paint3_linear_100_900" x1="120.679" y1="63.603" x2="122.39" y2="96.464" gradientUnits="userSpaceOnUse">
<stop stop-color="#C7C7FF"/>
<stop offset="0.0001" stop-color="#FF95DB"/>
<stop offset="1" stop-color="#ED58BA"/>
</linearGradient>
</defs>
</svg>
