<svg width="135" height="52" viewBox="0 0 135 52" fill="none" xmlns="http://www.w3.org/2000/svg">
<path fill-rule="evenodd" clip-rule="evenodd" d="M19.0759 14.4003C19.0759 15.026 18.8261 15.6511 18.3259 16.1519C17.8251 16.6521 17.1994 16.9025 16.4494 16.9025C15.6988 16.9025 15.0737 16.6521 14.5729 16.1519C14.1977 15.6511 13.9473 15.026 13.9473 14.4003C13.9473 13.6503 14.1971 13.0246 14.5729 12.6493C15.1125 12.2399 15.7721 12.0202 16.4494 12.0242C17.1267 12.0202 17.7863 12.24 18.3259 12.6493C18.8261 13.0246 19.0759 13.6503 19.0759 14.4003ZM14.1971 18.2788H18.8261V32.9153H14.1971V18.2788ZM29.5836 16.027C33.8373 16.027 35.9636 18.1539 35.9636 22.5319C35.9636 24.9086 35.3385 26.6602 34.0871 27.911C32.9613 29.0374 31.3352 29.662 29.2083 29.5376H27.5822V16.2774L29.5836 16.027ZM29.2083 12.5244L22.9538 13.0246V32.9153L28.2073 33.1651C32.3356 33.1651 35.3379 32.2896 37.4642 30.5386C39.8409 28.6627 40.9674 26.0351 40.9674 22.4076C40.9674 18.905 39.8415 16.278 37.4642 14.6519C35.5883 13.275 32.8364 12.5244 29.2083 12.5244ZM45.2211 20.4056C44.0952 21.9068 43.4701 23.6584 43.4701 25.7847C43.4701 28.1619 44.2201 29.9129 45.597 31.2886C46.9732 32.6643 48.8497 33.2906 51.3513 33.2906L56.6048 32.4151L55.9797 29.2872L51.9764 29.9135C50.8505 29.9135 49.975 29.6631 49.0989 29.1629C48.3484 28.6627 47.9731 27.9121 47.8482 27.036H57.3554L57.4803 25.2845C57.4803 23.2831 56.9801 21.6564 55.9792 20.2807C54.8533 18.6541 53.1017 17.904 50.8505 17.904C48.4733 17.9035 46.5968 18.779 45.2211 20.4056ZM48.4733 22.0317C49.0984 21.406 49.7241 21.0313 50.6001 21.0313C52.3517 21.0313 53.2266 22.0317 53.2266 23.9082H47.7227C47.8476 23.1576 48.098 22.5319 48.4733 22.0317ZM66.237 17.9035C67.8637 17.9035 69.2394 18.1533 70.3653 18.7795L69.4898 21.9068L66.3619 21.0313C65.2361 21.0313 64.611 21.4066 64.611 22.2821C64.611 22.9078 65.3615 23.408 66.9876 24.0331C69.6147 24.9086 70.9904 26.4098 70.9904 28.5372C70.9904 29.9129 70.4902 31.0382 69.3637 31.9149C68.2384 32.7892 66.7372 33.2906 64.611 33.2906C62.7345 33.2906 61.1078 32.9153 59.857 32.1641L60.7331 28.9114C61.859 29.7869 63.2347 30.1622 64.611 30.1622C65.9867 30.1622 66.6123 29.662 66.6123 28.7865C66.6123 28.1614 65.8623 27.66 64.4855 27.1598C61.6086 26.2843 60.2323 24.7831 60.2323 22.7817C60.2323 21.4055 60.7325 20.1547 61.8584 19.2792C62.9843 18.4037 64.3606 17.9035 66.237 17.9035ZM78.2453 12.6493C78.7455 13.0246 78.9959 13.6503 78.9959 14.4003C78.9959 15.026 78.7455 15.6511 78.2453 16.1519C77.8712 16.6521 77.2449 16.9025 76.4943 16.9025H76.3694C75.6188 16.9025 74.9937 16.6521 74.4935 16.1519C74.1182 15.6511 73.8673 15.026 73.8673 14.4003C73.8673 13.6503 74.1177 13.0246 74.4935 12.6493C74.9937 12.274 75.6188 12.0242 76.4943 12.0242C77.2449 12.0242 77.8712 12.274 78.2453 12.6493ZM74.1182 18.2788H78.7455V32.9153H74.1182V18.2788ZM88.6287 17.9035C86.7528 17.9035 85.251 18.6541 83.8753 20.0303C82.6245 21.5315 81.9983 23.408 81.9983 25.6598C81.9983 27.7866 82.6245 29.5382 83.7504 30.9139C84.8757 32.1647 86.2514 32.7898 88.1285 32.7898C89.8795 32.7898 91.2552 32.1647 92.1312 30.9139H92.2562V31.9154C92.2562 34.5419 91.0065 35.7933 88.3783 35.7933C86.8777 35.7933 85.5008 35.418 84.1252 34.6668L83.1247 38.1694C84.5004 38.92 86.3775 39.2959 88.5043 39.2959C91.1308 39.2959 93.1328 38.6708 94.5085 37.4188C96.0091 36.0431 96.7597 33.9163 96.7597 30.9145L96.8857 18.2799H92.8818L92.7569 20.0315H92.6309C91.756 18.6541 90.5046 17.9035 88.6287 17.9035ZM86.6273 25.5337C86.6273 24.158 86.8777 23.157 87.5028 22.5319C88.0041 21.7813 88.7536 21.406 89.6297 21.406C90.8805 21.406 91.6316 22.0317 92.0069 23.4074L92.1318 24.158V26.4092L92.0069 27.5357C91.6316 28.9114 90.7561 29.5376 89.6297 29.5376C88.7542 29.5376 88.0041 29.1623 87.3785 28.2868C86.8777 27.6606 86.6273 26.6602 86.6273 25.5337ZM100.137 18.2788H104.141L104.266 20.2807H104.391C105.393 18.6541 106.893 17.904 109.02 17.904C110.646 17.904 111.897 18.4042 112.772 19.5307C113.774 20.6566 114.274 22.1572 114.274 24.2841V32.9153H109.646V24.7837C109.646 22.6568 108.895 21.6564 107.393 21.6564C106.268 21.6564 105.393 22.1566 105.017 23.2831L104.892 24.5333V32.9153H100.264L100.137 18.2788ZM119.903 15.1515L119.027 17.4033L118.152 15.1515H117.401V18.2788H117.776V15.6517L118.903 18.2788H119.152L120.154 15.6517V18.2788H120.654V15.1515H119.903ZM114.274 15.1515V15.6517H115.274V18.2788H115.774V15.6517H116.776V15.1515H114.274Z" fill="#3B5998"/>
</svg>
