<svg width="20" height="20" viewBox="0 0 20 20" fill="none" xmlns="http://www.w3.org/2000/svg">
<g clip-path="url(#clip0_195_48)">
<path d="M15 9.16663C15 9.72496 15 10.275 15 10.8333C16 10.8333 17.3 10.8333 18.3333 10.8333C18.3333 10.275 18.3333 9.72496 18.3333 9.16663C17.3 9.16663 16 9.16663 15 9.16663Z" fill="#7D889E"/>
<path d="M13.333 14.6749C14.133 15.2666 15.1747 16.0499 15.9997 16.6666C16.333 16.2249 16.6663 15.7749 16.9997 15.3333C16.1747 14.7166 15.133 13.9333 14.333 13.3333C13.9997 13.7833 13.6663 14.2333 13.333 14.6749Z" fill="#7D889E"/>
<path d="M16.9997 4.66659C16.6663 4.22492 16.333 3.77492 15.9997 3.33325C15.1747 3.94992 14.133 4.73325 13.333 5.33325C13.6663 5.77492 13.9997 6.22492 14.333 6.66659C15.133 6.06659 16.1747 5.29159 16.9997 4.66659Z" fill="#7D889E"/>
<path d="M3.33366 7.5C2.41699 7.5 1.66699 8.25 1.66699 9.16667V10.8333C1.66699 11.75 2.41699 12.5 3.33366 12.5H4.16699V15.8333H5.83366V12.5H6.66699L10.8337 15V5L6.66699 7.5H3.33366ZM7.52533 8.925L9.16699 7.94167V12.0583L7.52533 11.075L7.12533 10.8333H6.66699H3.33366V9.16667H6.66699H7.12533L7.52533 8.925Z" fill="#7D889E"/>
<path d="M12.917 9.99992C12.917 8.89159 12.4337 7.89159 11.667 7.20825V12.7833C12.4337 12.1083 12.917 11.1083 12.917 9.99992Z" fill="#7D889E"/>
</g>
<defs>
<clipPath id="clip0_195_48">
<rect width="20" height="20" fill="white"/>
</clipPath>
</defs>
</svg>
