<svg width="20" height="20" viewBox="0 0 20 20" fill="none" xmlns="http://www.w3.org/2000/svg">
<g clip-path="url(#clip0_72_128)">
<path d="M12.3503 9.16658H18.292C17.9003 5.23325 14.767 2.09992 10.8337 1.70825V7.64992C11.542 7.90825 12.092 8.45825 12.3503 9.16658ZM12.5003 3.81659C14.167 4.49992 15.5003 5.83325 16.1837 7.49992H13.3253C13.092 7.19159 12.8087 6.90825 12.5003 6.67492V3.81659ZM1.66699 9.99992C1.66699 14.3249 4.95866 17.8749 9.16699 18.2916V12.3499C8.20033 11.9999 7.50033 11.0833 7.50033 9.99992C7.50033 8.91658 8.20033 7.99992 9.16699 7.64992V1.70825C4.95866 2.12492 1.66699 5.67492 1.66699 9.99992ZM7.50033 3.81659V6.68325C6.47533 7.44992 5.83366 8.67492 5.83366 9.99992C5.83366 11.3249 6.47533 12.5499 7.50033 13.3249V16.1916C5.03366 15.1999 3.33366 12.7916 3.33366 9.99992C3.33366 7.20825 5.03366 4.79992 7.50033 3.81659ZM10.8337 12.3499V18.2916C14.767 17.8999 17.9003 14.7666 18.292 10.8333H12.3503C12.092 11.5416 11.542 12.0916 10.8337 12.3499ZM12.5003 13.3249C12.8087 13.0916 13.092 12.8166 13.3253 12.4999H16.1837C15.5003 14.1666 14.167 15.4999 12.5003 16.1833V13.3249Z" fill="#7D889E"/>
</g>
<defs>
<clipPath id="clip0_72_128">
<rect width="20" height="20" fill="white"/>
</clipPath>
</defs>
</svg>
