<svg width="20" height="20" viewBox="0 0 20 20" fill="none" xmlns="http://www.w3.org/2000/svg">
<g clip-path="url(#clip0_194_305)">
<path d="M17.842 9.65008L10.342 2.15008C10.042 1.85008 9.62533 1.66675 9.16699 1.66675H3.33366C2.41699 1.66675 1.66699 2.41675 1.66699 3.33341V9.16675C1.66699 9.62508 1.85033 10.0417 2.15866 10.3501L9.65866 17.8501C9.95866 18.1501 10.3753 18.3334 10.8337 18.3334C11.292 18.3334 11.7087 18.1501 12.0087 17.8417L17.842 12.0084C18.1503 11.7084 18.3337 11.2917 18.3337 10.8334C18.3337 10.3751 18.142 9.95008 17.842 9.65008ZM10.8337 16.6751L3.33366 9.16675V3.33341H9.16699V3.32508L16.667 10.8251L10.8337 16.6751Z" fill="#7D889E"/>
<path d="M5.41699 6.66675C6.10735 6.66675 6.66699 6.1071 6.66699 5.41675C6.66699 4.72639 6.10735 4.16675 5.41699 4.16675C4.72664 4.16675 4.16699 4.72639 4.16699 5.41675C4.16699 6.1071 4.72664 6.66675 5.41699 6.66675Z" fill="#7D889E"/>
<path d="M7.41699 10.4583C7.41699 10.9333 7.60866 11.35 7.91699 11.6667L10.8337 14.5833L13.7503 11.6667C14.0587 11.3583 14.2503 10.925 14.2503 10.4583C14.2503 9.51667 13.4837 8.75 12.542 8.75C12.067 8.75 11.642 8.94167 11.3337 9.25L10.8337 9.75L10.3337 9.25833C10.0253 8.94167 9.59199 8.75 9.12533 8.75C8.18366 8.75 7.41699 9.51667 7.41699 10.4583Z" fill="#7D889E"/>
</g>
<defs>
<clipPath id="clip0_194_305">
<rect width="20" height="20" fill="white"/>
</clipPath>
</defs>
</svg>
