<svg width="111" height="110" viewBox="0 0 111 110" fill="none" xmlns="http://www.w3.org/2000/svg">
<mask id="mask0_117_209" style="mask-type:alpha" maskUnits="userSpaceOnUse" x="19" y="4" width="77" height="97">
<path d="M71.246 4.40276L42.1309 51.8947L19.4731 82.3532L55.5966 100.26L50.5133 75.3513L52.8088 64.9864L62.2383 53.9811L78.1302 52.6652L95.6437 39.8618L93.3969 33.5745L71.246 4.40276Z" fill="#D9D9D9"/>
</mask>
<g mask="url(#mask0_117_209)">
<path d="M-81.2698 -16.0016L-11.9569 -3.1273C-11.9569 -3.1273 57.3561 9.74707 57.3547 9.75846C58.3007 9.93309 59.2097 10.3554 59.9941 11.0241C62.3624 13.0575 62.6339 16.6256 60.5988 18.9891L15.0306 72.3007C14.9594 72.3916 14.8931 72.4807 14.8154 72.5685L-3.28038 93.7392L-0.540277 94.249L44.0906 102.538C45.0673 102.707 46.0088 103.128 46.8115 103.818C49.1798 105.851 49.4514 109.419 47.418 111.788L18.1183 146.065C18.0472 146.156 17.9808 146.245 17.9031 146.333L-9.50438 178.396L1.93095 210.731L59.3735 143.534C59.4495 143.441 59.5321 143.352 59.6164 143.267L116.858 76.2993L53.258 64.4866L37.8118 82.5561C35.7819 84.9341 32.2076 85.2188 29.8313 83.1937C27.4534 81.1638 27.1704 77.5943 29.1938 75.2132L64.9162 33.4211L63.3827 33.7237C62.0789 33.9824 60.8279 33.6713 59.9481 32.8731C59.5124 32.478 59.1865 31.9781 58.9891 31.4105C58.7852 30.8398 58.7146 30.1996 58.7815 29.5322C58.9022 28.3437 59.4613 27.1458 60.35 26.1682C61.2388 25.1907 62.3746 24.523 63.5523 24.293L79.4148 21.1551C80.7186 20.8965 81.9697 21.2075 82.8494 22.0058C83.7243 22.8057 84.1533 24.0214 84.0143 25.3419L82.3729 41.4288C82.1236 43.8904 80.0269 46.1886 77.6021 46.6679C76.2983 46.9266 75.0472 46.6155 74.1675 45.8173C73.2877 45.0191 72.8636 43.8017 72.9977 42.4829L73.1236 41.2326L61.7232 54.5676L128.454 66.9629C129.426 67.1337 130.368 67.5554 131.175 68.2431C133.542 70.2716 133.813 73.8397 131.782 76.2129L68.1905 150.609C68.1242 150.698 68.053 150.789 67.9753 150.877L4.40322 225.25C3.75286 226.132 2.84195 226.833 1.73268 227.224C-1.22099 228.269 -4.4626 226.722 -5.50719 223.769L-21.3042 179.106C-22.0546 176.99 -21.4698 174.72 -19.9911 173.226L9.27371 138.988C9.34969 138.896 9.43224 138.806 9.51652 138.722L32.4662 111.873L-2.59065 105.361L-14.6308 103.124C-15.7007 102.999 -16.7466 102.56 -17.6253 101.811C-20.0033 99.7807 -20.2862 96.2113 -18.2629 93.8302L6.19078 65.2224C6.26677 65.1298 6.34931 65.0403 6.4336 64.9557L45.644 19.0811L-14.0477 7.99346L-73.6937 -3.0886L-61.3883 31.7122C-49.7124 33.8609 -38.0547 36.1416 -26.4326 38.5823C-21.8389 39.5478 -17.2576 40.5395 -12.6908 41.6127C-8.0425 42.7004 -1.03845 43.2681 1.22958 46.6081C4.15524 50.9185 0.503112 54.3125 -1.9372 57.0226C-4.21103 59.5423 -6.347 62.2036 -8.54791 64.7899C-10.6569 67.2671 -12.7691 69.7508 -14.8781 72.228C-15.3455 72.7822 -16.8658 75.289 -17.6082 75.4397L-15.866 75.0953C-14.5622 74.8366 -13.3112 75.1477 -12.4314 75.9459C-11.9957 76.3411 -11.6698 76.8409 -11.4724 77.4085C-11.2685 77.9792 -11.1979 78.6194 -11.2665 79.282C-11.3872 80.4705 -11.9415 81.6666 -12.8351 82.6459C-13.7238 83.6234 -14.8596 84.2911 -16.0373 84.5211L-31.8998 87.659C-33.2036 87.9177 -34.4547 87.6066 -35.3344 86.8084C-36.2093 86.0084 -36.6383 84.7928 -36.4993 83.4723L-34.8579 67.3853C-34.6086 64.9237 -32.5119 62.6255 -30.0871 62.1463C-28.7833 61.8876 -27.5322 62.1986 -26.6525 62.9969C-25.7727 63.7951 -25.3486 65.0125 -25.4828 66.3312L-25.5931 67.396L-13.1009 52.7818L-66.4006 42.2734C-68.4452 42.0005 -70.27 40.6183 -71.0083 38.5369C-71.0083 38.5369 -87.6615 -8.55253 -87.6519 -8.55598C-87.9768 -9.46523 -88.0682 -10.4688 -87.8804 -11.4849C-87.3013 -14.5498 -84.3444 -16.5773 -81.2698 -16.0016Z" fill="#3B5998"/>
</g>
</svg>
