<svg width="31" height="31" viewBox="0 0 31 31" fill="none" xmlns="http://www.w3.org/2000/svg">
<g clip-path="url(#clip0_100_907)">
<path d="M7.74996 12.9167C6.32913 12.9167 5.16663 14.0792 5.16663 15.5001C5.16663 16.9209 6.32913 18.0834 7.74996 18.0834C9.17079 18.0834 10.3333 16.9209 10.3333 15.5001C10.3333 14.0792 9.17079 12.9167 7.74996 12.9167ZM23.25 12.9167C21.8291 12.9167 20.6666 14.0792 20.6666 15.5001C20.6666 16.9209 21.8291 18.0834 23.25 18.0834C24.6708 18.0834 25.8333 16.9209 25.8333 15.5001C25.8333 14.0792 24.6708 12.9167 23.25 12.9167ZM15.5 12.9167C14.0791 12.9167 12.9166 14.0792 12.9166 15.5001C12.9166 16.9209 14.0791 18.0834 15.5 18.0834C16.9208 18.0834 18.0833 16.9209 18.0833 15.5001C18.0833 14.0792 16.9208 12.9167 15.5 12.9167Z" fill="#040310"/>
</g>
<defs>
<clipPath id="clip0_100_907">
<rect width="31" height="31" fill="white"/>
</clipPath>
</defs>
</svg>
