<svg width="17" height="24" viewBox="0 0 17 24" fill="none" xmlns="http://www.w3.org/2000/svg">
<path fill-rule="evenodd" clip-rule="evenodd" d="M8.62336 0C9.18575 0.189086 9.4154 0.587449 9.37615 1.16883C9.35939 1.41712 9.37339 1.6674 9.37339 1.90868C9.79176 2.02313 10.2034 2.11139 10.5985 2.24759C13.192 3.14196 14.9712 5.60233 14.9941 8.34267C15.01 10.2482 15.0023 12.1539 14.9952 14.0594C14.9936 14.5034 15.1361 14.818 15.5407 15.0585C16.6192 15.6997 17.1044 16.9919 16.7659 18.2045C16.4353 19.3895 15.333 20.2452 14.094 20.2473C10.3218 20.2535 6.54973 20.2535 2.77757 20.2473C1.53248 20.2453 0.415899 19.3712 0.0993592 18.1817C-0.229369 16.9465 0.273631 15.6753 1.37083 15.0335C1.73269 14.8217 1.87514 14.5285 1.87458 14.1293C1.87202 12.2394 1.86939 10.3494 1.87452 8.45937C1.88177 5.74847 3.48241 3.37348 5.98822 2.35179C6.22575 2.25491 6.47266 2.17827 6.71981 2.10864C6.96634 2.03932 7.21875 1.99062 7.49853 1.92599C7.49853 1.6784 7.5126 1.42249 7.49572 1.16871C7.4569 0.587511 7.68531 0.188462 8.24857 6.29504e-05C8.37333 4.42557e-07 8.49835 0 8.62336 0ZM8.41209 18.375C10.2789 18.375 12.1459 18.376 14.0128 18.3742C14.4862 18.3737 14.8383 18.114 14.96 17.6873C15.0783 17.2729 14.9187 16.8585 14.5191 16.6271C13.5437 16.0619 13.1232 15.1982 13.1233 14.0982C13.1235 12.2469 13.128 10.3956 13.1192 8.54438C13.1176 8.20284 13.0883 7.85667 13.027 7.52081C12.5746 5.04526 10.062 3.3411 7.59805 3.82848C5.30757 4.28153 3.75225 6.16552 3.74888 8.49688C3.74613 10.4028 3.75976 12.3089 3.7435 14.2147C3.73463 15.2475 3.30551 16.0663 2.39246 16.6023C2.27376 16.672 2.15674 16.7632 2.07342 16.8711C1.84477 17.1673 1.80264 17.4999 1.96878 17.8397C2.14262 18.1951 2.43996 18.3735 2.83476 18.3739C4.69387 18.376 6.55298 18.3749 8.41209 18.375Z" fill="#7D889E"/>
<path fill-rule="evenodd" clip-rule="evenodd" d="M6.37217 23.9998C6.30835 23.9722 6.24422 23.9453 6.18084 23.9167C5.78585 23.7387 5.55763 23.3145 5.63464 22.9021C5.71578 22.4676 6.07426 22.1327 6.51313 22.1295C7.79398 22.1199 9.07495 22.12 10.3557 22.1295C10.7945 22.1327 11.1525 22.467 11.2342 22.902C11.3115 23.3141 11.0836 23.7383 10.6884 23.9166C10.625 23.9452 10.5609 23.9721 10.4972 23.9998C9.1222 23.9998 7.74722 23.9998 6.37217 23.9998Z" fill="#7D889E"/>
</svg>
