<svg width="36" height="23" viewBox="0 0 36 23" fill="none" xmlns="http://www.w3.org/2000/svg">
<mask id="mask0_313_407" style="mask-type:alpha" maskUnits="userSpaceOnUse" x="9" y="2" width="13" height="20">
<path d="M9.08675 21.1156L11.206 10.2914L11.8272 2.84021L21.3493 4.77649L16.4684 7.85324L15.2542 9.69705L15.2599 12.5481L17.9949 14.7752L19.2134 18.928L17.8029 19.5815L9.08675 21.1156Z" fill="#D9D9D9"/>
</mask>
<g mask="url(#mask0_313_407)">
<path d="M-22.3853 4.68338L-7.51252 11.6126C-7.51252 11.6126 7.36029 18.5418 7.36184 18.5399C7.56465 18.6346 7.79981 18.6876 8.05083 18.6878C8.81104 18.6862 9.42566 18.1871 9.42257 17.5735L9.41522 3.77668C9.41642 3.75399 9.41823 3.73218 9.41772 3.70912L9.4148 -1.76979L10.0029 -1.49598L19.5794 2.96595C19.787 3.06544 20.028 3.12265 20.2857 3.12206C21.0459 3.12044 21.6606 2.62135 21.6586 2.00728L21.6536 -6.86368C21.6548 -6.88637 21.6567 -6.90818 21.6561 -6.93124L21.6515 -15.2292L28.8835 -18.6056L28.8937 -1.21442C28.8931 -1.19085 28.8942 -1.16692 28.8965 -1.14349L28.9058 16.1875L15.259 9.82942L15.2563 5.15295C15.2564 4.53787 14.6395 4.03865 13.8791 4.03802C13.1177 4.03789 12.5007 4.53572 12.4989 5.15042L12.5047 15.9661L12.2686 15.7249C12.068 15.5197 11.7871 15.4064 11.498 15.4134C11.3548 15.4168 11.2154 15.45 11.089 15.5097C10.961 15.569 10.8467 15.6557 10.7535 15.7641C10.5879 15.9573 10.502 16.208 10.512 16.4678C10.5219 16.7275 10.6267 16.9725 10.8084 17.1574L13.2498 19.6533C13.4504 19.8586 13.7313 19.9719 14.0204 19.9649C14.309 19.957 14.5807 19.8299 14.7638 19.6146L17.0042 16.9984C17.3473 16.5983 17.3225 15.9866 16.9492 15.6051C16.7487 15.3999 16.4678 15.2866 16.1786 15.2936C15.8894 15.3006 15.6184 15.4285 15.4346 15.643L15.2602 15.8461L15.2579 12.3947L29.5768 19.0658C29.7838 19.1644 30.0249 19.2216 30.2832 19.2219C31.0423 19.2208 31.6569 18.7217 31.656 18.1071L31.6456 -1.14646C31.6474 -1.16826 31.6486 -1.19095 31.6481 -1.21401L31.6376 -20.4617C31.6566 -20.6766 31.5989 -20.898 31.4553 -21.0982C31.0735 -21.6318 30.2285 -21.8146 29.5679 -21.5061L19.5784 -16.8429C19.1049 -16.6224 18.8541 -16.208 18.8917 -15.7956L18.8964 -6.93502C18.8958 -6.91145 18.897 -6.88752 18.8992 -6.86409L18.903 0.08433L11.3806 -3.42021L8.79703 -4.62379C8.57912 -4.74181 8.31601 -4.80976 8.03473 -4.80989C7.27327 -4.81003 6.65633 -4.31219 6.65446 -3.69749L6.6586 3.70622C6.65803 3.72978 6.65916 3.75371 6.66138 3.77715L6.66751 15.6492L-6.14087 9.68185L-18.9399 3.71954L-11.1569 0.0855713C-8.65468 1.2558 -6.13499 2.40395 -3.59657 3.52363C-2.59314 3.96608 -1.58785 4.40301 -0.572347 4.8259C0.460546 5.25703 1.84746 6.06692 2.79576 5.85702C4.01931 5.58598 3.87975 4.61166 3.85643 3.89448C3.83384 3.22705 3.85917 2.55605 3.86063 1.88796C3.86182 1.24794 3.86349 0.60655 3.86469 -0.0334656C3.8658 -0.176083 3.98071 -0.745316 3.86706 -0.862719L4.13524 -0.588619C4.33579 -0.383354 4.61667 -0.270057 4.90585 -0.277078C5.04904 -0.280524 5.18845 -0.313661 5.31478 -0.373354C5.44281 -0.432673 5.55713 -0.519424 5.64923 -0.627318C5.81484 -0.820531 5.90137 -1.07028 5.89076 -1.33093C5.88078 -1.59071 5.77603 -1.8357 5.5943 -2.02056L3.15288 -4.51652C2.95233 -4.72179 2.67145 -4.83508 2.38228 -4.82806C2.09372 -4.82017 1.822 -4.69311 1.63889 -4.47782L-0.601428 -1.86157C-0.944586 -1.46147 -0.919776 -0.849811 -0.546505 -0.468322C-0.345955 -0.263057 -0.0650705 -0.14976 0.224108 -0.15678C0.513283 -0.163799 0.784377 -0.291737 0.968103 -0.506149L1.11608 -0.679533L1.11823 3.10265L-10.4148 -2.13471C-10.8366 -2.35509 -11.3932 -2.38143 -11.8591 -2.1644C-11.8591 -2.1644 -22.3909 2.75244 -22.3897 2.75419C-22.5937 2.8487 -22.7693 2.98716 -22.8952 3.16315C-23.2727 3.69563 -23.0458 4.37671 -22.3853 4.68338Z" fill="#FA3737"/>
</g>
<mask id="mask1_313_407" style="mask-type:alpha" maskUnits="userSpaceOnUse" x="16" y="2" width="13" height="20">
<path d="M16.6185 21.1156L18.7378 10.2914L19.3589 2.84021L28.881 4.77649L24.0001 7.85324L22.7859 9.69705L22.7916 12.5481L25.5266 14.7752L26.7451 18.928L25.3346 19.5815L16.6185 21.1156Z" fill="#D9D9D9"/>
</mask>
<g mask="url(#mask1_313_407)">
<path d="M-14.8536 4.68338L0.0192151 11.6126C0.0192151 11.6126 14.892 18.5418 14.8936 18.5399C15.0964 18.6346 15.3315 18.6876 15.5826 18.6878C16.3428 18.6862 16.9574 18.1871 16.9543 17.5735L16.947 3.77668C16.9482 3.75399 16.95 3.73218 16.9495 3.70912L16.9465 -1.76979L17.5346 -1.49598L27.1111 2.96595C27.3187 3.06544 27.5598 3.12265 27.8175 3.12206C28.5777 3.12044 29.1923 2.62135 29.1903 2.00728L29.1854 -6.86368C29.1866 -6.88637 29.1884 -6.90818 29.1879 -6.93124L29.1832 -15.2292L36.4152 -18.6056L36.4254 -1.21442C36.4248 -1.19085 36.426 -1.16692 36.4282 -1.14349L36.4375 16.1875L22.7907 9.82942L22.788 5.15295C22.7882 4.53787 22.1712 4.03865 21.4109 4.03802C20.6494 4.03789 20.0325 4.53572 20.0306 5.15042L20.0365 15.9661L19.8003 15.7249C19.5998 15.5197 19.3189 15.4064 19.0297 15.4134C18.8865 15.4168 18.7471 15.45 18.6208 15.5097C18.4927 15.569 18.3784 15.6557 18.2852 15.7641C18.1196 15.9573 18.0337 16.208 18.0437 16.4678C18.0537 16.7275 18.1584 16.9725 18.3402 17.1574L20.7816 19.6533C20.9821 19.8586 21.263 19.9719 21.5522 19.9649C21.8407 19.957 22.1125 19.8299 22.2956 19.6146L24.5359 16.9984C24.879 16.5983 24.8542 15.9866 24.481 15.6051C24.2804 15.3999 23.9995 15.2866 23.7104 15.2936C23.4212 15.3006 23.1501 15.4285 22.9664 15.643L22.7919 15.8461L22.7897 12.3947L37.1085 19.0658C37.3155 19.1644 37.5566 19.2216 37.8149 19.2219C38.574 19.2208 39.1887 18.7217 39.1877 18.1071L39.1774 -1.14646C39.1792 -1.16826 39.1804 -1.19095 39.1799 -1.21401L39.1693 -20.4617C39.1883 -20.6766 39.1306 -20.898 38.987 -21.0982C38.6052 -21.6318 37.7602 -21.8146 37.0996 -21.5061L27.1101 -16.8429C26.6366 -16.6224 26.3858 -16.208 26.4234 -15.7956L26.4281 -6.93502C26.4276 -6.91145 26.4287 -6.88752 26.4309 -6.86409L26.4348 0.08433L18.9123 -3.42021L16.3288 -4.62379C16.1109 -4.74181 15.8477 -4.80976 15.5665 -4.80989C14.805 -4.81003 14.1881 -4.31219 14.1862 -3.69749L14.1903 3.70622C14.1898 3.72978 14.1909 3.75371 14.1931 3.77715L14.1992 15.6492L1.39086 9.68185L-11.4082 3.71954L-3.62515 0.0855713C-1.12294 1.2558 1.39675 2.40395 3.93516 3.52363C4.9386 3.96608 5.94389 4.40301 6.95939 4.8259C7.99228 5.25703 9.3792 6.06692 10.3275 5.85702C11.5511 5.58598 11.4115 4.61166 11.3882 3.89448C11.3656 3.22705 11.3909 2.55605 11.3924 1.88796C11.3936 1.24794 11.3952 0.60655 11.3964 -0.0334656C11.3975 -0.176083 11.5124 -0.745316 11.3988 -0.862719L11.667 -0.588619C11.8675 -0.383354 12.1484 -0.270057 12.4376 -0.277078C12.5808 -0.280524 12.7202 -0.313661 12.8465 -0.373354C12.9745 -0.432673 13.0889 -0.519424 13.181 -0.627318C13.3466 -0.820531 13.4331 -1.07028 13.4225 -1.33093C13.4125 -1.59071 13.3078 -1.8357 13.126 -2.02056L10.6846 -4.51652C10.4841 -4.72179 10.2032 -4.83508 9.91401 -4.82806C9.62546 -4.82017 9.35374 -4.69311 9.17063 -4.47782L6.93031 -1.86157C6.58715 -1.46147 6.61196 -0.849811 6.98523 -0.468322C7.18578 -0.263057 7.46667 -0.14976 7.75585 -0.15678C8.04502 -0.163799 8.31611 -0.291737 8.49984 -0.506149L8.64781 -0.679533L8.64996 3.10265L-2.88305 -2.13471C-3.30486 -2.35509 -3.86142 -2.38143 -4.32736 -2.1644C-4.32736 -2.1644 -14.8592 2.75244 -14.8579 2.75419C-15.0619 2.8487 -15.2376 2.98716 -15.3635 3.16315C-15.741 3.69563 -15.514 4.37671 -14.8536 4.68338Z" fill="#FA3737"/>
</g>
</svg>
