<svg width="36" height="23" viewBox="0 0 36 23" fill="none" xmlns="http://www.w3.org/2000/svg">
<mask id="mask0_313_400" style="mask-type:alpha" maskUnits="userSpaceOnUse" x="9" y="1" width="13" height="20">
<path d="M9.08675 1.8844L11.206 12.7086L11.8272 20.1598L21.3493 18.2235L16.4684 15.1468L15.2542 13.303L15.2599 10.4519L17.9949 8.22477L19.2134 4.07197L17.8029 3.41846L9.08675 1.8844Z" fill="#D9D9D9"/>
</mask>
<g mask="url(#mask0_313_400)">
<path d="M-22.3853 18.3166L-7.51252 11.3874C-7.51252 11.3874 7.36029 4.4582 7.36184 4.46008C7.56465 4.36535 7.79981 4.3124 8.05083 4.31222C8.81104 4.31385 9.42566 4.81292 9.42257 5.42649L9.41522 19.2233C9.41642 19.246 9.41823 19.2678 9.41772 19.2909L9.4148 24.7698L10.0029 24.496L19.5794 20.034C19.787 19.9346 20.028 19.8774 20.2857 19.8779C21.0459 19.8796 21.6606 20.3786 21.6586 20.9927L21.6536 29.8637C21.6548 29.8864 21.6567 29.9082 21.6561 29.9312L21.6515 38.2292L28.8835 41.6056L28.8937 24.2144C28.8931 24.1909 28.8942 24.1669 28.8965 24.1435L28.9058 6.81248L15.259 13.1706L15.2563 17.8471C15.2564 18.4621 14.6395 18.9613 13.8791 18.962C13.1177 18.9621 12.5007 18.4643 12.4989 17.8496L12.5047 7.03388L12.2686 7.27507C12.068 7.48033 11.7871 7.59363 11.498 7.58661C11.3548 7.58317 11.2154 7.55002 11.089 7.49033C10.961 7.43101 10.8467 7.34427 10.7535 7.23587C10.5879 7.04266 10.502 6.79203 10.512 6.53225C10.5219 6.27247 10.6267 6.02748 10.8084 5.84262L13.2498 3.34666C13.4504 3.1414 13.7313 3.0281 14.0204 3.03512C14.309 3.04302 14.5807 3.17007 14.7638 3.38536L17.0042 6.00161C17.3473 6.40171 17.3225 7.01337 16.9492 7.39486C16.7487 7.60013 16.4678 7.71342 16.1786 7.7064C15.8894 7.69938 15.6184 7.57145 15.4346 7.35704L15.2602 7.15391L15.2579 10.6053L29.5768 3.93423C29.7838 3.83562 30.0249 3.77841 30.2832 3.77812C31.0423 3.77924 31.6569 4.27833 31.656 4.8929L31.6456 24.1465C31.6474 24.1683 31.6486 24.191 31.6481 24.214L31.6376 43.4617C31.6566 43.6766 31.5989 43.898 31.4553 44.0982C31.0735 44.6318 30.2285 44.8146 29.5679 44.5061L19.5784 39.8429C19.1049 39.6224 18.8541 39.208 18.8917 38.7956L18.8964 29.935C18.8958 29.9115 18.897 29.8875 18.8992 29.8641L18.903 22.9157L11.3806 26.4202L8.79703 27.6238C8.57912 27.7418 8.31601 27.8098 8.03473 27.8099C7.27327 27.81 6.65633 27.3122 6.65446 26.6975L6.6586 19.2938C6.65803 19.2702 6.65916 19.2463 6.66138 19.2229L6.66751 7.35083L-6.14087 13.3181L-18.9399 19.2805L-11.1569 22.9144C-8.65468 21.7442 -6.13499 20.596 -3.59657 19.4764C-2.59314 19.0339 -1.58785 18.597 -0.572347 18.1741C0.460546 17.743 1.84746 16.9331 2.79576 17.143C4.01931 17.414 3.87975 18.3883 3.85643 19.1055C3.83384 19.7729 3.85917 20.444 3.86063 21.112C3.86182 21.7521 3.86349 22.3934 3.86469 23.0335C3.8658 23.1761 3.98071 23.7453 3.86706 23.8627L4.13524 23.5886C4.33579 23.3834 4.61667 23.2701 4.90585 23.2771C5.04904 23.2805 5.18845 23.3137 5.31478 23.3734C5.44281 23.4327 5.55713 23.5194 5.64923 23.6273C5.81484 23.8205 5.90137 24.0703 5.89076 24.3309C5.88078 24.5907 5.77603 24.8357 5.5943 25.0206L3.15288 27.5165C2.95233 27.7218 2.67145 27.8351 2.38228 27.8281C2.09372 27.8202 1.822 27.6931 1.63889 27.4778L-0.601428 24.8616C-0.944586 24.4615 -0.919776 23.8498 -0.546505 23.4683C-0.345955 23.2631 -0.0650705 23.1498 0.224108 23.1568C0.513283 23.1638 0.784377 23.2917 0.968103 23.5061L1.11608 23.6795L1.11823 19.8973L-10.4148 25.1347C-10.8366 25.3551 -11.3932 25.3814 -11.8591 25.1644C-11.8591 25.1644 -22.3909 20.2476 -22.3897 20.2458C-22.5937 20.1513 -22.7693 20.0128 -22.8952 19.8368C-23.2727 19.3044 -23.0458 18.6233 -22.3853 18.3166Z" fill="#30BD71"/>
</g>
<mask id="mask1_313_400" style="mask-type:alpha" maskUnits="userSpaceOnUse" x="16" y="1" width="13" height="20">
<path d="M16.6185 1.8844L18.7378 12.7086L19.3589 20.1598L28.881 18.2235L24.0001 15.1468L22.7859 13.303L22.7916 10.4519L25.5266 8.22477L26.7451 4.07197L25.3346 3.41846L16.6185 1.8844Z" fill="#D9D9D9"/>
</mask>
<g mask="url(#mask1_313_400)">
<path d="M-14.8536 18.3166L0.0192151 11.3874C0.0192151 11.3874 14.892 4.4582 14.8936 4.46008C15.0964 4.36535 15.3315 4.3124 15.5826 4.31222C16.3428 4.31385 16.9574 4.81292 16.9543 5.42649L16.947 19.2233C16.9482 19.246 16.95 19.2678 16.9495 19.2909L16.9465 24.7698L17.5346 24.496L27.1111 20.034C27.3187 19.9346 27.5598 19.8774 27.8175 19.8779C28.5777 19.8796 29.1923 20.3786 29.1903 20.9927L29.1854 29.8637C29.1866 29.8864 29.1884 29.9082 29.1879 29.9312L29.1832 38.2292L36.4152 41.6056L36.4254 24.2144C36.4248 24.1909 36.426 24.1669 36.4282 24.1435L36.4375 6.81248L22.7907 13.1706L22.788 17.8471C22.7882 18.4621 22.1712 18.9613 21.4109 18.962C20.6494 18.9621 20.0325 18.4643 20.0306 17.8496L20.0365 7.03388L19.8003 7.27507C19.5998 7.48033 19.3189 7.59363 19.0297 7.58661C18.8865 7.58317 18.7471 7.55002 18.6208 7.49033C18.4927 7.43101 18.3784 7.34427 18.2852 7.23587C18.1196 7.04266 18.0337 6.79203 18.0437 6.53225C18.0537 6.27247 18.1584 6.02748 18.3402 5.84262L20.7816 3.34666C20.9821 3.1414 21.263 3.0281 21.5522 3.03512C21.8407 3.04302 22.1125 3.17007 22.2956 3.38536L24.5359 6.00161C24.879 6.40171 24.8542 7.01337 24.481 7.39486C24.2804 7.60013 23.9995 7.71342 23.7104 7.7064C23.4212 7.69938 23.1501 7.57145 22.9664 7.35704L22.7919 7.15391L22.7897 10.6053L37.1085 3.93423C37.3155 3.83562 37.5566 3.77841 37.8149 3.77812C38.574 3.77924 39.1887 4.27833 39.1877 4.8929L39.1774 24.1465C39.1792 24.1683 39.1804 24.191 39.1799 24.214L39.1693 43.4617C39.1883 43.6766 39.1306 43.898 38.987 44.0982C38.6052 44.6318 37.7602 44.8146 37.0996 44.5061L27.1101 39.8429C26.6366 39.6224 26.3858 39.208 26.4234 38.7956L26.4281 29.935C26.4276 29.9115 26.4287 29.8875 26.4309 29.8641L26.4348 22.9157L18.9123 26.4202L16.3288 27.6238C16.1109 27.7418 15.8477 27.8098 15.5665 27.8099C14.805 27.81 14.1881 27.3122 14.1862 26.6975L14.1903 19.2938C14.1898 19.2702 14.1909 19.2463 14.1931 19.2229L14.1992 7.35083L1.39086 13.3181L-11.4082 19.2805L-3.62515 22.9144C-1.12294 21.7442 1.39675 20.596 3.93516 19.4764C4.9386 19.0339 5.94389 18.597 6.95939 18.1741C7.99228 17.743 9.3792 16.9331 10.3275 17.143C11.5511 17.414 11.4115 18.3883 11.3882 19.1055C11.3656 19.7729 11.3909 20.444 11.3924 21.112C11.3936 21.7521 11.3952 22.3934 11.3964 23.0335C11.3975 23.1761 11.5124 23.7453 11.3988 23.8627L11.667 23.5886C11.8675 23.3834 12.1484 23.2701 12.4376 23.2771C12.5808 23.2805 12.7202 23.3137 12.8465 23.3734C12.9745 23.4327 13.0889 23.5194 13.181 23.6273C13.3466 23.8205 13.4331 24.0703 13.4225 24.3309C13.4125 24.5907 13.3078 24.8357 13.126 25.0206L10.6846 27.5165C10.4841 27.7218 10.2032 27.8351 9.91401 27.8281C9.62546 27.8202 9.35374 27.6931 9.17063 27.4778L6.93031 24.8616C6.58715 24.4615 6.61196 23.8498 6.98523 23.4683C7.18578 23.2631 7.46667 23.1498 7.75585 23.1568C8.04502 23.1638 8.31611 23.2917 8.49984 23.5061L8.64781 23.6795L8.64996 19.8973L-2.88305 25.1347C-3.30486 25.3551 -3.86142 25.3814 -4.32736 25.1644C-4.32736 25.1644 -14.8592 20.2476 -14.8579 20.2458C-15.0619 20.1513 -15.2376 20.0128 -15.3635 19.8368C-15.741 19.3044 -15.514 18.6233 -14.8536 18.3166Z" fill="#30BD71"/>
</g>
</svg>
