<svg width="22" height="24" viewBox="0 0 22 24" fill="none" xmlns="http://www.w3.org/2000/svg">
<path fill-rule="evenodd" clip-rule="evenodd" d="M4.67115 0H5.33503C5.70496 0 6.00291 0.3 6.00291 0.668V2H16.0011V0.668C16.0011 0.298 16.301 0 16.669 0H17.3328C17.7028 0 18.0007 0.3 18.0007 0.668V2H21.0002C21.2654 2 21.5197 2.10536 21.7072 2.29289C21.8947 2.48043 22 2.73478 22 3V23C22 23.2652 21.8947 23.5196 21.7072 23.7071C21.5197 23.8946 21.2654 24 21.0002 24H1.00382C0.872183 24.0005 0.74174 23.975 0.619975 23.925C0.498209 23.875 0.387518 23.8014 0.294252 23.7085C0.200987 23.6156 0.126982 23.5052 0.076487 23.3836C0.0259915 23.262 -1.05305e-06 23.1317 0 23V3C-1.05305e-06 2.86834 0.0259915 2.73798 0.076487 2.61639C0.126982 2.4948 0.200987 2.38439 0.294252 2.29147C0.387518 2.19856 0.498209 2.12499 0.619975 2.07497C0.74174 2.02495 0.872183 1.99947 1.00382 2H4.00327V0.668C4.00327 0.298 4.30322 0 4.67115 0ZM2.00364 4V6H20.0004V4H2.00364ZM2.00364 8V22H20.0004V8H2.00364ZM4.00327 10H6.00291V12H4.00327V10ZM8.00254 10H10.0022V12H8.00254V10ZM12.0018 10H14.0015V12H12.0018V10ZM16.0011 10H18.0007V12H16.0011V10ZM4.00327 14H6.00291V16H4.00327V14ZM8.00254 14H10.0022V16H8.00254V14ZM12.0018 14H14.0015V16H12.0018V14ZM16.0011 14H18.0007V16H16.0011V14ZM4.00327 18H6.00291V20H4.00327V18ZM8.00254 18H10.0022V20H8.00254V18ZM12.0018 18H14.0015V20H12.0018V18Z" fill="#7D889E"/>
</svg>
