<svg width="24" height="24" viewBox="0 0 24 24" fill="none" xmlns="http://www.w3.org/2000/svg">
<path fill-rule="evenodd" clip-rule="evenodd" d="M13.8848 24C12.3848 24 10.8848 24 9.38475 24C9.35687 23.9871 9.33018 23.9692 9.30087 23.9622C8.4547 23.759 7.93513 23.1992 7.79561 22.3408C7.73429 21.9635 7.67141 21.5864 7.60709 21.2095C7.44563 20.2639 6.58427 19.7618 5.67959 20.0883C5.2836 20.2313 4.8933 20.3904 4.49557 20.5281C3.60645 20.8361 2.70352 20.5128 2.22871 19.7038C1.56525 18.5731 0.909733 17.4377 0.262463 16.2978C-0.208597 15.4682 -0.033825 14.5287 0.69233 13.9079C1.01281 13.6339 1.34541 13.374 1.66627 13.1004C2.38117 12.4908 2.38105 11.508 1.66652 10.8997C1.35729 10.6365 1.03819 10.3851 0.72821 10.1227C-0.0443885 9.46889 -0.21466 8.53665 0.285778 7.6616C0.921109 6.55077 1.56069 5.44226 2.20527 4.33674C2.71121 3.46907 3.61927 3.14809 4.56114 3.49413C4.94906 3.63665 5.33205 3.79311 5.7226 3.92781C6.59114 4.22735 7.44669 3.71791 7.60409 2.81367C7.67097 2.42937 7.73335 2.04426 7.79574 1.65921C7.93482 0.800852 8.45382 0.241281 9.30037 0.0375672C9.32975 0.0305038 9.35656 0.0128141 9.38463 0C10.8846 0 12.3846 0 13.8846 0C13.9126 0.0127516 13.9394 0.0305658 13.9688 0.0376292C14.8138 0.240155 15.3338 0.800727 15.4735 1.65915C15.5348 2.03651 15.5974 2.41362 15.6621 2.79042C15.8246 3.73635 16.6844 4.23735 17.5902 3.91112C17.9789 3.77111 18.3622 3.61559 18.7514 3.47713C19.6464 3.15878 20.5601 3.47863 21.0406 4.29617C21.7048 5.42632 22.3598 6.56196 23.0067 7.70211C23.4773 8.53152 23.3025 9.46971 22.5764 10.0925C22.2564 10.367 21.9234 10.6264 21.6026 10.9001C20.8872 11.5108 20.8874 12.4883 21.603 13.1002C21.9117 13.3641 22.2313 13.6149 22.5414 13.8773C23.3134 14.5303 23.4838 15.4639 22.9835 16.3388C22.3482 17.4496 21.7086 18.5582 21.0639 19.6635C20.5581 20.5304 19.6495 20.851 18.7072 20.5054C18.3192 20.3632 17.9362 20.207 17.5457 20.072C16.6772 19.772 15.8205 20.2823 15.665 21.1862C15.5988 21.5706 15.5362 21.9557 15.4735 22.3407C15.3333 23.1996 14.8134 23.7596 13.9685 23.9621C13.9392 23.9691 13.9126 23.9871 13.8848 24ZM13.6057 22.1179C13.6693 21.738 13.7362 21.3697 13.7919 20.9997C14.0895 19.0211 15.8739 17.7532 17.7824 18.1976C18.2878 18.3153 18.7709 18.5314 19.2601 18.7134C19.3805 18.7583 19.4418 18.7432 19.5019 18.6305C19.6156 18.4172 19.7413 18.2102 19.8622 18.0007C20.3687 17.1226 20.8752 16.2444 21.3878 15.3558C21.0733 15.0962 20.7675 14.8426 20.4604 14.5904C18.7663 13.1989 18.7667 10.7995 20.4612 9.40895C20.7683 9.15698 21.0741 8.90332 21.3887 8.64348C20.7505 7.5384 20.1202 6.44351 19.4817 5.35337C19.4544 5.30693 19.3393 5.27017 19.285 5.2883C18.9596 5.39663 18.6389 5.51908 18.319 5.64309C17.7161 5.87694 17.0975 5.96451 16.4589 5.83756C15.02 5.55133 14.0145 4.47601 13.7916 2.99857C13.7352 2.62458 13.6665 2.25229 13.6054 1.88993C12.2717 1.88993 10.9711 1.88993 9.66129 1.88993C9.59803 2.27204 9.53296 2.64059 9.47645 3.01045C9.17479 4.98551 7.37999 6.25061 5.47563 5.80061C4.99319 5.6866 4.53132 5.48107 4.06582 5.30236C3.90355 5.24004 3.82592 5.26361 3.73747 5.41963C3.15627 6.44445 2.56332 7.46258 1.97481 8.48321C1.94474 8.5354 1.92011 8.59072 1.89005 8.65035C2.18702 8.89557 2.47525 9.1346 2.76447 9.37232C4.52138 10.8163 4.52044 13.1836 2.76259 14.6292C2.46949 14.8701 2.17789 15.1131 1.88279 15.3575C2.52231 16.4657 3.15121 17.5527 3.77585 18.6423C3.83542 18.7461 3.89224 18.7588 4.00081 18.7159C4.35611 18.5756 4.71541 18.4453 5.07445 18.3148C7.01007 17.6107 9.06021 18.781 9.43901 20.8076C9.52027 21.2423 9.59078 21.679 9.66673 22.1179C10.983 22.1179 12.2782 22.1179 13.6057 22.1179Z" fill="#7D889E"/>
<path fill-rule="evenodd" clip-rule="evenodd" d="M11.481 16.6241C8.88345 16.4903 6.88713 14.3363 7.00709 11.8292C7.13048 9.25013 9.27169 7.27275 11.7979 7.38227C14.3878 7.49447 16.3744 9.65943 16.2606 12.1584C16.1438 14.724 14.0277 16.6973 11.481 16.6241ZM14.3868 12.0065C14.3924 10.5077 13.1587 9.26245 11.6524 9.24663C10.1487 9.23082 8.88639 10.4817 8.88108 11.9929C8.87576 13.491 10.1103 14.7373 11.6154 14.7533C13.1183 14.7691 14.381 13.5177 14.3868 12.0065Z" fill="#7D889E"/>
</svg>
