<svg width="13" height="18" viewBox="0 0 13 18" fill="none" xmlns="http://www.w3.org/2000/svg">
<path fill-rule="evenodd" clip-rule="evenodd" d="M6.46752 0C6.88931 0.141815 7.06155 0.440587 7.03211 0.876625C7.01955 1.06284 7.03005 1.25055 7.03005 1.43151C7.34382 1.51735 7.65253 1.58354 7.94886 1.6857C9.894 2.35647 11.2284 4.20174 11.2456 6.257C11.2575 7.68612 11.2517 9.11542 11.2464 10.5446C11.2452 10.8776 11.3521 11.1135 11.6555 11.2939C12.4644 11.7747 12.8283 12.744 12.5745 13.6534C12.3265 14.5422 11.4997 15.1839 10.5705 15.1855C7.74137 15.1901 4.9123 15.1901 2.08318 15.1855C1.14936 15.184 0.311924 14.5284 0.0745194 13.6363C-0.172027 12.7099 0.205223 11.7565 1.02812 11.2751C1.29952 11.1163 1.40636 10.8964 1.40594 10.597C1.40401 9.17955 1.40204 7.76202 1.40589 6.34453C1.41133 4.31135 2.61181 2.53011 4.49117 1.76385C4.66931 1.69118 4.85449 1.6337 5.03986 1.58148C5.22476 1.52949 5.41406 1.49297 5.6239 1.44449C5.6239 1.2588 5.63445 1.06687 5.62179 0.876532C5.59268 0.440633 5.76398 0.141346 6.18643 4.72128e-05C6.28 3.31918e-07 6.37376 0 6.46752 0ZM6.30907 13.7812C7.70921 13.7812 9.1094 13.782 10.5096 13.7807C10.8646 13.7803 11.1287 13.5855 11.22 13.2655C11.3087 12.9547 11.189 12.6439 10.8893 12.4704C10.1577 12.0465 9.84238 11.3987 9.84248 10.5736C9.84262 9.18518 9.84599 7.79671 9.83943 6.40829C9.83821 6.15213 9.81622 5.8925 9.77023 5.64061C9.43095 3.78394 7.54648 2.50583 5.69853 2.87136C3.98068 3.21115 2.81419 4.62414 2.81166 6.37266C2.8096 7.8021 2.81982 9.23169 2.80763 10.661C2.80097 11.4356 2.47913 12.0497 1.79434 12.4517C1.70532 12.504 1.61756 12.5724 1.55506 12.6533C1.38357 12.8755 1.35198 13.125 1.47659 13.3798C1.60696 13.6464 1.82997 13.7801 2.12607 13.7804C3.5204 13.782 4.91473 13.7811 6.30907 13.7812Z" fill="#7D889E"/>
<path fill-rule="evenodd" clip-rule="evenodd" d="M4.77914 18C4.73127 17.9793 4.68317 17.9591 4.63564 17.9376C4.3394 17.8041 4.16823 17.486 4.22599 17.1767C4.28684 16.8508 4.5557 16.5997 4.88485 16.5972C5.84549 16.59 6.80622 16.5901 7.76681 16.5972C8.09587 16.5997 8.36435 16.8504 8.42562 17.1766C8.48366 17.4857 8.31274 17.8038 8.01631 17.9376C7.96877 17.9591 7.92072 17.9792 7.8729 18C6.84166 18 5.81042 18 4.77914 18Z" fill="#7D889E"/>
</svg>
