<svg width="48" height="48" viewBox="0 0 48 48" fill="none" xmlns="http://www.w3.org/2000/svg">
<circle cx="24" cy="24" r="24" fill="#3B5998" fill-opacity="0.1"/>
<path d="M24.0129 11C16.8766 11 11.0898 16.7857 11.0898 23.923C11.0898 29.6329 14.7927 34.477 19.9274 36.1858C20.5733 36.3054 20.8104 35.9054 20.8104 35.5641C20.8104 35.256 20.7984 34.2379 20.7929 33.158C17.1976 33.9398 16.439 31.6333 16.439 31.6333C15.8511 30.1395 15.0041 29.7424 15.0041 29.7424C13.8317 28.9403 15.0925 28.9568 15.0925 28.9568C16.3902 29.048 17.0735 30.2885 17.0735 30.2885C18.2261 32.2642 20.0967 31.693 20.8341 31.3629C20.9501 30.5275 21.2851 29.9575 21.6546 29.6348C18.7843 29.3079 15.7668 28.1998 15.7668 23.2481C15.7668 21.8373 16.2716 20.6844 17.0984 19.7794C16.9642 19.4539 16.5219 18.1395 17.2235 16.3595C17.2235 16.3595 18.3087 16.0121 20.7783 17.6841C21.8091 17.3977 22.9146 17.2542 24.0129 17.2493C25.1112 17.2542 26.2175 17.3977 27.2503 17.6841C29.7169 16.0121 30.8006 16.3595 30.8006 16.3595C31.504 18.1395 31.0615 19.4539 30.9273 19.7794C31.7559 20.6844 32.2573 21.8372 32.2573 23.2481C32.2573 28.2116 29.2341 29.3046 26.3565 29.6245C26.82 30.0255 27.233 30.812 27.233 32.0176C27.233 33.7467 27.218 35.1384 27.218 35.5641C27.218 35.908 27.4506 36.3109 28.1057 36.184C33.2377 34.4733 36.9358 29.631 36.9358 23.923C36.9358 16.7857 31.1499 11 24.0129 11Z" fill="#3B5998"/>
<path d="M15.9301 29.4091C15.9017 29.4732 15.8006 29.4925 15.7087 29.4485C15.6149 29.4063 15.5622 29.3188 15.5926 29.2543C15.6205 29.1882 15.7216 29.1698 15.8152 29.2142C15.9091 29.2562 15.9626 29.3446 15.9301 29.4091ZM16.5658 29.9763C16.5042 30.0334 16.3837 30.0069 16.3019 29.9166C16.2173 29.8265 16.2015 29.706 16.2641 29.648C16.3276 29.5909 16.4445 29.6176 16.5292 29.7078C16.6137 29.7989 16.6302 29.9186 16.5657 29.9764M17.0019 30.7019C16.9227 30.757 16.7931 30.7054 16.7132 30.5905C16.634 30.4756 16.634 30.3378 16.7149 30.2825C16.7952 30.2273 16.9227 30.277 17.0037 30.391C17.0828 30.5079 17.0828 30.6457 17.0018 30.702M17.7394 31.5425C17.6685 31.6205 17.5177 31.5996 17.4072 31.493C17.2943 31.3888 17.2628 31.2409 17.3339 31.1628C17.4055 31.0846 17.5572 31.1065 17.6685 31.2123C17.7807 31.3162 17.815 31.4652 17.7395 31.5425M18.6925 31.8263C18.6614 31.9274 18.516 31.9734 18.3697 31.9304C18.2235 31.8862 18.1279 31.7676 18.1573 31.6653C18.1878 31.5634 18.3337 31.5155 18.4812 31.5615C18.6271 31.6056 18.723 31.7233 18.6926 31.8263M19.7774 31.9466C19.781 32.0532 19.6569 32.1416 19.5032 32.1435C19.3487 32.1468 19.2237 32.0606 19.2221 31.9558C19.2221 31.8481 19.3434 31.7606 19.4978 31.758C19.6515 31.755 19.7774 31.8406 19.7774 31.9466ZM20.843 31.9057C20.8615 32.0097 20.7546 32.1165 20.6021 32.1449C20.4521 32.1723 20.3132 32.1081 20.2941 32.005C20.2754 31.8984 20.3843 31.7917 20.534 31.764C20.6868 31.7375 20.8235 31.8 20.843 31.9057Z" fill="#3B5998"/>
</svg>
