<svg width="20" height="20" viewBox="0 0 20 20" fill="none" xmlns="http://www.w3.org/2000/svg">
<g clip-path="url(#clip0_195_56)">
<path d="M19.1667 9.17496L15 9.16663C14.5417 9.16663 14.1667 9.54163 14.1667 9.99996V17.5C14.1667 17.9583 14.5417 18.3333 15 18.3333H19.1667C19.625 18.3333 20 17.9583 20 17.5V9.99996C20 9.54163 19.625 9.17496 19.1667 9.17496ZM19.1667 16.6666H15V10.8333H19.1667V16.6666ZM16.6667 1.66663H1.66667C0.741667 1.66663 0 2.40829 0 3.33329V13.3333C0 14.25 0.741667 15 1.66667 15H7.5V16.6666H5.83333V18.3333H12.5V16.6666H10.8333V15H12.5V13.3333H1.66667V3.33329H16.6667V7.49996H18.3333V3.33329C18.3333 2.40829 17.5833 1.66663 16.6667 1.66663ZM9.975 7.49996L9.16667 4.99996L8.35833 7.49996H5.83333L7.89167 8.96663L7.10833 11.3916L9.16667 9.89163L11.225 11.3916L10.4417 8.96663L12.5 7.49996H9.975Z" fill="#7D889E"/>
</g>
<defs>
<clipPath id="clip0_195_56">
<rect width="20" height="20" fill="white"/>
</clipPath>
</defs>
</svg>
