<svg width="135" height="52" viewBox="0 0 135 52" fill="none" xmlns="http://www.w3.org/2000/svg">
<path fill-rule="evenodd" clip-rule="evenodd" d="M24.927 32.8721H19.7753V25.4838C19.7753 23.5184 19.3001 22.4334 17.7419 22.4341C16.2504 22.4341 15.3694 23.5184 15.3694 25.2805V32.8721H10.1504V18.502H15.37V19.9936C16.3191 18.7053 17.8099 18.0955 19.5047 18.0955C23.3688 18.0955 24.9276 20.8066 24.9276 24.1955V32.8721H24.927V32.8721ZM42.4147 25.6204C42.4147 29.8897 38.8232 33.2793 34.6878 33.2793C30.4179 33.2793 26.893 30.0263 26.893 25.6191C26.893 21.3491 30.4852 18.0955 34.6199 18.0955C38.8898 18.0962 42.4147 21.2138 42.4147 25.6204ZM37.399 25.6197C37.3996 23.9936 36.5179 22.1629 34.6205 22.1629C32.8578 22.1629 31.9774 23.9936 31.9774 25.6197C31.9774 27.3145 32.8584 29.1446 34.6885 29.1446C36.5179 29.1446 37.399 27.3145 37.399 25.6197ZM60.5802 32.6015C60.5802 36.9401 57.5978 39.244 52.7853 39.244C49.803 39.244 47.0918 38.363 45.8036 37.6172L47.4984 34.229C48.7866 34.9061 50.4807 35.3813 52.4461 35.3813C54.7507 35.3813 55.4285 34.1617 55.4285 32.7375V31.2459C54.6834 32.195 53.1239 33.0773 51.0905 33.0773C47.0232 33.076 44.3121 29.6198 44.3121 25.6204C44.3121 21.6217 47.0232 18.0968 51.0905 18.0968C52.7847 18.0968 54.6154 18.8426 55.4285 19.9276V18.5034H60.5802V32.6015V32.6015ZM55.4292 25.6871C55.4292 23.7224 54.2089 22.2988 52.4468 22.2988C50.7527 22.2988 49.4644 23.7224 49.4644 25.6871C49.4644 27.7217 50.7527 29.0087 52.4474 29.0087C54.2089 29.0087 55.4292 27.6538 55.4292 25.6871V25.6871ZM78.0006 32.8721H72.8489V31.3819C71.8999 32.6695 70.4097 33.28 68.7142 33.28C64.8508 33.28 63.292 30.5688 63.292 27.1113V18.5027H68.443V25.8917C68.443 27.857 68.9175 28.9413 70.477 28.9413C71.9672 28.9413 72.8489 27.857 72.8489 26.0269V18.5027H78.0006V32.8721V32.8721ZM94.3353 30.161C92.5739 32.3309 90.8118 33.28 88.0327 33.28C83.4915 33.28 80.1019 30.0257 80.1019 25.6871C80.1019 21.5524 83.4235 18.0962 88.0327 18.0955C90.4732 18.0955 92.3019 18.9092 93.8614 20.7393L90.8791 23.5184C90.0653 22.6374 89.1163 22.1629 88.0327 22.1629C86.2026 22.1629 84.9137 23.6544 84.9137 25.6871C84.9137 27.4498 86.1346 29.2133 88.0327 29.2133C89.3876 29.2133 90.066 28.6708 90.8791 27.7217L94.3353 30.161V30.161ZM110.942 32.8721H105.724V25.4838C105.724 23.5184 105.248 22.4341 103.69 22.4341C102.199 22.4341 101.317 23.5178 101.317 25.2805V32.8721H96.166V10.6399L101.317 10.7085V19.9942C102.266 18.706 103.758 18.0962 105.452 18.0962C109.316 18.0955 110.943 20.8073 110.943 24.1969L110.942 32.8721ZM113.856 32.8721L113.858 18.502H119.009L119.008 32.8714H113.856V32.8721V32.8721Z" fill="#3B5998"/>
<path fill-rule="evenodd" clip-rule="evenodd" d="M127.276 21.4849C127.278 21.8947 127.198 22.3006 127.042 22.6795C126.885 23.0583 126.656 23.4026 126.366 23.6924C126.076 23.9822 125.732 24.2118 125.353 24.3681C124.974 24.5244 124.568 24.6043 124.159 24.6032C122.464 24.6032 121.041 23.1796 121.041 21.4855C121.04 21.0757 121.12 20.6697 121.276 20.2909C121.432 19.912 121.662 19.5678 121.951 19.278C122.241 18.9882 122.585 18.7586 122.964 18.6023C123.343 18.4459 123.749 18.3661 124.159 18.3672C125.921 18.3672 127.276 19.7228 127.276 21.4849Z" fill="#3B5998"/>
</svg>
