<svg width="136" height="52" viewBox="0 0 136 52" fill="none" xmlns="http://www.w3.org/2000/svg">
<path d="M73.3799 16.6851C73.3799 18.0154 72.3051 19.0866 70.9714 19.0866C69.6376 19.0866 68.5636 18.0154 68.5636 16.6851C68.5636 15.3548 69.601 14.2836 70.9714 14.2836C72.3429 14.3205 73.3799 15.3921 73.3799 16.6851ZM63.4513 21.5258V22.1171C63.4513 22.1171 62.3034 20.6384 59.8582 20.6384C55.8207 20.6384 52.6713 23.7055 52.6713 27.9544C52.6713 32.1669 55.7837 35.2704 59.8582 35.2704C62.3404 35.2704 63.4513 33.7556 63.4513 33.7556V34.3834C63.4513 34.6791 63.6741 34.9002 63.9702 34.9002H66.9704V21.0068H63.9702C63.6741 21.0079 63.4513 21.267 63.4513 21.5258ZM63.4513 30.4301C62.8962 31.2433 61.7845 31.9454 60.4511 31.9454C58.0804 31.9454 56.2648 30.4674 56.2648 27.9544C56.2648 25.4418 58.0804 23.9638 60.4511 23.9638C61.7479 23.9638 62.9332 24.7028 63.4513 25.4787V30.4301ZM69.1935 21.0079H72.7496V34.9013H69.1935V21.0079ZM122.317 20.6381C119.872 20.6381 118.723 22.1167 118.723 22.1167V14.3205H115.167V34.9013H118.168C118.464 34.9013 118.686 34.6426 118.686 34.3838V33.7559C118.686 33.7559 119.835 35.2708 122.279 35.2708C126.317 35.2708 129.466 32.168 129.466 27.9555C129.466 23.7431 126.317 20.6381 122.317 20.6381ZM121.724 31.9081C120.353 31.9081 119.279 31.2068 118.723 30.3932V25.4418C119.279 24.7028 120.464 23.9269 121.724 23.9269C124.095 23.9269 125.91 25.4049 125.91 27.9175C125.91 30.4301 124.095 31.9081 121.724 31.9081ZM113.315 26.6618V34.9382H109.758V27.0678C109.758 24.7774 109.017 23.8531 107.018 23.8531C105.944 23.8531 104.832 24.4075 104.127 25.2207V34.9017H100.572V21.0083H103.386C103.683 21.0083 103.905 21.267 103.905 21.5258V22.1171C104.943 21.0452 106.313 20.6384 107.683 20.6384C109.24 20.6384 110.536 21.0825 111.574 21.9691C112.833 23.0038 113.315 24.3337 113.315 26.6618ZM91.939 20.6381C89.4946 20.6381 88.3459 22.1167 88.3459 22.1167V14.3205H84.7898V34.9013H87.79C88.0865 34.9013 88.3089 34.6426 88.3089 34.3838V33.7559C88.3089 33.7559 89.4576 35.2708 91.902 35.2708C95.9403 35.2708 99.089 32.168 99.089 27.9555C99.126 23.7427 95.9773 20.6381 91.939 20.6381ZM91.3462 31.9081C89.9757 31.9081 88.9018 31.2068 88.3459 30.3932V25.4418C88.9018 24.7028 90.0871 23.9269 91.3462 23.9269C93.7176 23.9269 95.5325 25.4049 95.5325 27.9175C95.5325 30.4301 93.7176 31.9081 91.3462 31.9081ZM81.7148 20.6381C82.7888 20.6381 83.3446 20.8233 83.3446 20.8233V24.1115C83.3446 24.1115 80.3811 23.1137 78.5292 25.2203V34.9379H74.9723V21.0079H77.9733C78.2697 21.0079 78.4914 21.2667 78.4914 21.5254V22.1167C79.159 21.3405 80.6038 20.6381 81.7148 20.6381ZM44.7812 33.6448C44.5961 33.2015 44.4107 32.7213 44.2257 32.3145C43.9289 31.6497 43.6325 31.0211 43.3738 30.4301L43.3368 30.3932C40.7802 24.8505 38.0394 19.2346 35.1495 13.6926L35.0384 13.4704C34.7345 12.8955 34.4383 12.3165 34.1499 11.7337C33.7791 11.0682 33.409 10.3668 32.8161 9.7013C31.6307 8.22333 29.9265 7.41016 28.1117 7.41016C26.259 7.41016 24.5922 8.22334 23.3702 9.62711C22.8143 10.2919 22.4065 10.994 22.0364 11.6595C21.7473 12.242 21.4511 12.8209 21.1479 13.3962L21.0365 13.6184C18.1839 19.1604 15.4057 24.7767 12.8496 30.319L12.8122 30.3925C12.5531 30.9846 12.2563 31.6124 11.9599 32.2769C11.7748 32.6836 11.5898 33.1269 11.4048 33.6072C10.9229 34.974 10.7745 36.2674 10.9603 37.5981C11.3677 40.3695 13.2196 42.6965 15.7761 43.7318C16.7395 44.1386 17.7398 44.3232 18.7768 44.3232C19.0732 44.3232 19.4433 44.2863 19.7401 44.249C20.9628 44.1013 22.2222 43.6953 23.4449 42.9932C24.9638 42.1431 26.4085 40.9243 28.0384 39.1507C29.6682 40.9243 31.15 42.1431 32.6318 42.9932C33.8549 43.6953 35.1139 44.1013 36.3363 44.249C36.6327 44.2866 37.0036 44.3232 37.3 44.3232C38.3373 44.3232 39.3743 44.1386 40.3003 43.7318C42.8938 42.6965 44.7086 40.3326 45.1165 37.5981C45.4107 36.3051 45.2626 35.0124 44.7812 33.6448ZM28.0743 35.5661C26.0736 33.0535 24.7769 30.6889 24.3328 28.6941C24.1477 27.8441 24.1104 27.1051 24.2217 26.4399C24.2954 25.8486 24.5182 25.3311 24.8146 24.8878C25.5185 23.8907 26.7039 23.2621 28.0747 23.2621C29.4458 23.2621 30.6682 23.8535 31.3351 24.8878C31.6315 25.3311 31.8535 25.849 31.9283 26.4399C32.0389 27.1054 32.0019 27.881 31.8169 28.6941C31.371 30.652 30.0742 33.0169 28.0743 35.5661ZM42.8545 37.3028C42.5955 39.2241 41.2987 40.8874 39.4838 41.6264C38.5949 41.9955 37.6312 42.1066 36.6686 41.9955C35.7427 41.8844 34.816 41.5887 33.8535 41.035C32.5197 40.2953 31.1863 39.1507 29.6301 37.4505C32.0749 34.458 33.5567 31.7232 34.1125 29.2851C34.3719 28.1394 34.4093 27.1051 34.2976 26.1439C34.1499 25.2203 33.8161 24.3702 33.2976 23.6313C32.1485 21.968 30.2219 21.0079 28.0739 21.0079C25.926 21.0079 23.9993 22.0056 22.851 23.6313C22.3325 24.3702 21.9987 25.2203 21.8506 26.1439C21.7026 27.1051 21.7392 28.1763 22.0357 29.2851C22.5912 31.7232 24.11 34.4946 26.5177 37.4874C24.9989 39.1872 23.6281 40.333 22.2944 41.0719C21.331 41.6264 20.4055 41.922 19.4795 42.0324C18.4796 42.1435 17.5159 41.9955 16.664 41.6633C14.8491 40.9243 13.5523 39.261 13.2933 37.3397C13.1823 36.4162 13.2559 35.4926 13.6267 34.458C13.7374 34.0881 13.9232 33.719 14.1082 33.2757C14.3676 32.6844 14.6633 32.0558 14.9601 31.4279L14.9975 31.3544C17.5533 25.8486 20.2945 20.2324 23.147 14.7642L23.2581 14.542C23.5549 13.9883 23.8513 13.397 24.1474 12.8425C24.4438 12.2512 24.7769 11.6968 25.1847 11.2162C25.9626 10.3303 26.9996 9.84932 28.1483 9.84932C29.297 9.84932 30.334 10.3303 31.1119 11.2162C31.5197 11.6979 31.8528 12.2523 32.1492 12.8425C32.446 13.397 32.7425 13.9883 33.0382 14.542L33.1496 14.7642C35.9586 20.2551 38.6634 25.7985 41.2624 31.3913V31.4282C41.5593 32.0203 41.8183 32.6847 42.1147 33.2768C42.2998 33.7194 42.4852 34.0885 42.5962 34.4584C42.8919 35.4181 43.0029 36.3424 42.8545 37.3028Z" fill="#3B5998"/>
</svg>
