<svg width="18" height="18" viewBox="0 0 18 18" fill="none" xmlns="http://www.w3.org/2000/svg">
<path fill-rule="evenodd" clip-rule="evenodd" d="M7.84059 0C8.61395 0 9.38732 0 10.1607 0C10.4239 0.0922761 10.5561 0.286496 10.6076 0.553657C10.6484 0.765892 10.7003 0.97637 10.7609 1.18377C10.7767 1.23826 10.8352 1.30768 10.8866 1.32087C11.6692 1.51728 12.4039 1.82575 13.0977 2.23704C13.1443 2.26472 13.2339 2.26121 13.2831 2.2344C13.4888 2.12367 13.6856 1.99624 13.8878 1.87892C14.1839 1.70711 14.4045 1.73347 14.6479 1.97471C15.1093 2.43214 15.5685 2.89176 16.0264 3.3527C16.2689 3.59701 16.2957 3.81628 16.1239 4.11244C16.0066 4.31457 15.8792 4.51143 15.7684 4.71707C15.7416 4.76672 15.7372 4.85592 15.7645 4.90206C16.1758 5.59589 16.4842 6.33058 16.6811 7.11317C16.6938 7.16458 16.7624 7.2239 16.8164 7.23972C17.0238 7.30036 17.2343 7.35265 17.4461 7.39352C17.7133 7.44493 17.9088 7.57543 18.0006 7.83952C18.0006 8.61288 18.0006 9.38624 18.0006 10.1596C17.9097 10.4145 17.7251 10.5489 17.4628 10.5999C17.2448 10.6421 17.0291 10.6966 16.8164 10.7594C16.7624 10.7752 16.6938 10.8345 16.6811 10.8864C16.4842 11.669 16.1758 12.4037 15.7645 13.0971C15.7372 13.1432 15.7416 13.2328 15.7684 13.2821C15.8822 13.4925 16.0136 13.6942 16.1323 13.9021C16.2927 14.1828 16.2663 14.403 16.0387 14.6337C15.5738 15.1038 15.1062 15.5718 14.6356 16.0367C14.4063 16.2635 14.183 16.2889 13.9031 16.129C13.7001 16.013 13.5046 15.8834 13.2976 15.7753C13.2401 15.7449 13.1372 15.741 13.0832 15.7726C12.3977 16.1743 11.6749 16.4796 10.9037 16.6747C10.8444 16.6897 10.7776 16.7701 10.7583 16.8334C10.6963 17.0342 10.6475 17.2394 10.6076 17.4459C10.5561 17.7131 10.4239 17.9068 10.1607 17.9996C9.38732 17.9996 8.61395 17.9996 7.84059 17.9996C7.57826 17.9051 7.44644 17.7109 7.39547 17.4433C7.35636 17.2367 7.30671 17.0311 7.24431 16.8303C7.22498 16.7675 7.15775 16.6958 7.09623 16.6743C6.88751 16.5996 6.66737 16.5565 6.45909 16.4814C6.17611 16.3795 5.89972 16.2591 5.6119 16.1431C5.64135 16.1035 5.65013 16.0877 5.662 16.0754C6.44063 15.2963 7.21795 14.5164 8.00142 13.7426C8.04887 13.6955 8.14906 13.6692 8.21717 13.6802C8.69041 13.7571 9.16146 13.7408 9.63427 13.6788C10.8031 13.5259 11.7909 13.0215 12.5621 12.1317C13.5213 11.0244 13.8987 9.72854 13.6764 8.28113C13.4321 6.69222 12.5818 5.50493 11.1515 4.77815C9.70896 4.04521 8.23475 4.06323 6.79963 4.80803C5.58027 5.44078 4.7924 6.44571 4.42506 7.7758C4.24402 8.43096 4.23391 9.09315 4.33014 9.76018C4.34684 9.87531 4.3174 9.95484 4.23391 10.0379C3.49087 10.7774 2.75222 11.5222 2.01225 12.2653C1.97183 12.3061 1.92877 12.3444 1.87868 12.3918C1.85099 12.3386 1.82463 12.2995 1.80925 12.2565C1.65238 11.8228 1.48936 11.3908 1.34743 10.9523C1.30568 10.8236 1.2534 10.7581 1.12113 10.7344C0.937022 10.7014 0.757739 10.6438 0.574066 10.6096C0.302511 10.5586 0.0986234 10.4294 0.00195312 10.1596C0.00195312 9.38624 0.00195312 8.61288 0.00195312 7.83952C0.0986234 7.57016 0.30207 7.44141 0.573186 7.38956C0.779709 7.35002 0.984477 7.29948 1.18617 7.24016C1.24065 7.2239 1.31052 7.1659 1.32326 7.11493C1.51968 6.33234 1.82814 5.59765 2.23943 4.90382C2.26711 4.85724 2.2636 4.7676 2.23723 4.71839C2.1265 4.51274 1.99951 4.31589 1.88175 4.11376C1.70994 3.81848 1.73631 3.59657 1.97754 3.35358C2.43497 2.8922 2.89459 2.43302 3.35553 1.97559C3.59941 1.73347 3.81999 1.70667 4.11527 1.87804C4.3174 1.99536 4.51426 2.12279 4.7199 2.23352C4.76955 2.26033 4.8592 2.26472 4.90533 2.23748C5.59916 1.82619 6.33342 1.51772 7.116 1.32087C7.16742 1.30812 7.22674 1.23958 7.24256 1.18509C7.30363 0.978127 7.35636 0.76765 7.39679 0.555415C7.44644 0.287814 7.5787 0.0944732 7.84059 0Z" fill="#7D889E"/>
<path fill-rule="evenodd" clip-rule="evenodd" d="M1.75764 18C1.64032 18 1.52344 18 1.40611 18C1.37931 17.9903 1.35338 17.9767 1.3257 17.9718C0.931546 17.9007 0.606825 17.7148 0.350648 17.4028C0.155111 17.1651 0.0694268 16.8839 0 16.5934C0 16.4761 0 16.3592 0 16.2419C0.0742603 15.733 0.380965 15.3701 0.732053 15.0216C2.29504 13.4701 3.84835 11.9093 5.40826 10.3547C5.4935 10.2699 5.5124 10.1991 5.4834 10.0809C5.41529 9.80365 5.33531 9.52199 5.32301 9.23944C5.26237 7.86102 5.78308 6.74535 6.92071 5.95441C7.84215 5.31331 8.86905 5.16875 9.95439 5.43196C10.1978 5.49084 10.3762 5.69604 10.3464 5.92585C10.327 6.07613 10.2488 6.24223 10.146 6.3534C9.74831 6.7827 9.31505 7.17949 8.92398 7.61407C8.60673 7.96691 8.62342 8.5298 8.91563 8.89583C9.32736 9.41213 10.0273 9.4486 10.5195 8.97053C10.9101 8.59088 11.2867 8.19716 11.6778 7.81839C12.0025 7.50377 12.4762 7.64087 12.5777 8.07545C12.699 8.59351 12.7258 9.11509 12.6295 9.64282C12.1862 12.0684 9.91924 13.123 7.92124 12.5232C7.80568 12.4884 7.73405 12.5043 7.64749 12.5908C6.09769 14.1468 4.54043 15.6957 2.9937 17.2552C2.63998 17.6115 2.26867 17.9156 1.75764 18Z" fill="#7D889E"/>
</svg>
