<svg width="69" height="51" viewBox="0 0 69 51" fill="none" xmlns="http://www.w3.org/2000/svg">
<path fill-rule="evenodd" clip-rule="evenodd" d="M34.7809 4.49146C26.0071 4.49146 18.894 11.5994 18.894 20.3677C18.894 27.5601 23.6835 33.6279 30.2458 35.5795C30.1551 34.1444 29.9894 30.3314 30.5871 27.7031C31.3358 24.4097 32.9835 19.5447 32.9835 19.5447L29.9134 21.3408L30.0627 19.0955L27.2918 19.844C27.2918 19.844 28.64 16.5508 30.3624 15.952C30.3624 15.952 27.5168 15.2035 26.2434 15.8773C26.2434 15.8773 28.1158 12.9585 31.4108 13.4072L30.9618 11.461L32.4598 11.5365L33.6579 12.3599L33.9572 10.339L35.9793 12.7339C35.9793 12.7339 36.6535 11.6864 40.1738 11.7608C38.9751 12.9587 39.0501 13.1828 39.0501 13.1828L42.1957 13.632L40.0241 15.1288C40.0241 15.1288 43.0199 16.4009 44.1431 19.2457C40.4735 18.497 40.9225 18.9461 40.9225 18.9461C40.9225 18.9461 41.372 19.2457 41.297 20.593C39.5739 19.545 39.1999 20.0686 39.1999 20.0686L39.7243 23.4368L39.5001 23.7359C39.5001 23.7359 37.777 20.4431 35.5303 19.6944C34.9982 20.3662 34.7595 20.6301 34.669 20.6965C34.219 22.0482 32.5896 27.3984 33.4332 31.7439C35.6803 28.9008 35.9796 28.6757 35.9796 28.6757L35.4556 32.0444L37.2532 31.4451C37.2532 31.4451 36.953 31.8188 36.8787 32.718C36.8133 33.5008 36.7482 35.5895 36.7322 36.1139C44.5842 35.1507 50.6688 28.4752 50.6688 20.3679C50.668 11.5994 43.5552 4.49146 34.7809 4.49146ZM17.113 37.0582V45.3663H16.2168V37.0582H17.113ZM20.1325 42.7301C20.1325 43.215 20.278 43.6536 20.5696 44.0458C20.861 44.4379 21.3361 44.6338 21.9938 44.6338C22.4723 44.6338 22.8249 44.5426 23.0535 44.3593C23.2815 44.177 23.4364 43.9735 23.519 43.7499C23.5559 43.6381 23.5819 43.5283 23.5972 43.4201C23.6112 43.3256 23.6187 43.2302 23.6198 43.1346C23.6198 42.7397 23.5276 42.4453 23.3447 42.2515C23.1612 42.0576 22.9576 41.9116 22.7337 41.8148C22.6601 41.7853 22.5852 41.7594 22.5092 41.7371C22.4346 41.7142 22.3598 41.6919 22.2849 41.6701C22.2252 41.6551 22.1657 41.6398 22.1054 41.6253L21.9264 41.5801C21.9056 41.5735 21.885 41.5661 21.8647 41.558C21.8413 41.5498 21.8167 41.5459 21.7919 41.5465C21.2013 41.3978 20.6633 41.187 20.1772 40.914C19.6916 40.6427 19.4487 40.0701 19.4487 39.1978C19.4487 38.6017 19.6294 38.0542 19.9926 37.5549C20.3545 37.0563 21.0066 36.8061 21.9483 36.8061C22.7479 36.8061 23.3287 37.0278 23.6911 37.4713C24.0535 37.9144 24.2687 38.4043 24.3361 38.9405C24.3432 38.9857 24.3486 39.0322 24.3528 39.0806C24.3562 39.1285 24.3579 39.1752 24.3579 39.2197H23.5065C23.4991 39.1531 23.4912 39.0857 23.4841 39.0196C23.4756 38.9476 23.4606 38.8765 23.4393 38.8071C23.3643 38.5464 23.2151 38.3051 22.9906 38.0819C22.7666 37.8583 22.4115 37.7465 21.9257 37.7465C21.4101 37.7465 21.0194 37.8829 20.7543 38.1544C20.489 38.4257 20.3562 38.7548 20.3562 39.1418C20.3562 39.6192 20.5128 39.9399 20.8271 40.104C21.1411 40.2682 21.488 40.395 21.8694 40.4842C21.8768 40.4918 21.8841 40.4957 21.892 40.4957H21.9144C21.9321 40.5038 21.9509 40.5094 21.9702 40.5124C21.9897 40.515 22.0087 40.5207 22.0265 40.5292C22.1605 40.5589 22.2994 40.5925 22.4415 40.6299C22.5832 40.6668 22.7248 40.708 22.8674 40.7528C23.2935 40.8938 23.684 41.1309 24.0388 41.4637C24.3943 41.7954 24.5711 42.3453 24.5711 43.1132C24.5711 43.2471 24.5603 43.4007 24.5374 43.572C24.5136 43.7508 24.4723 43.9268 24.4143 44.0976C24.2874 44.4706 24.0405 44.808 23.6744 45.1103C23.3083 45.4123 22.7327 45.5629 21.9481 45.5629C21.8059 45.5629 21.6264 45.5523 21.4098 45.5292C21.179 45.5038 20.9526 45.4474 20.7368 45.3616C20.3707 45.2277 20.0344 44.9643 19.7277 44.5721C19.4211 44.1804 19.2529 43.5666 19.2237 42.7306H20.1325V42.7301ZM30.9461 45.3663H26.699V37.0582H27.5952V44.4257H30.9461V45.3663ZM33.5775 42.278L34.7317 38.1903L35.8856 42.278H33.5775ZM33.3309 43.2191H36.1327L36.7605 45.3663H37.7128L35.2139 37.0582H34.2611L31.7624 45.3663H32.7037L33.3309 43.2191ZM40.2704 45.3663H39.3742V37.0582H40.3577L43.8679 43.643V37.0582H44.7529V45.3663H43.7799L40.2704 38.7845V45.3663ZM48.1588 37.9984H49.6351C49.7244 37.9984 49.8139 38.0023 49.9031 38.0099C49.9929 38.0171 50.0826 38.0326 50.1716 38.0547C50.5967 38.1594 50.9879 38.4378 51.3457 38.8889C51.7035 39.3406 51.8827 40.1151 51.8827 41.2123C51.8827 42.2274 51.6944 43.0169 51.3174 43.5804C50.9415 44.1438 50.2982 44.4259 49.3887 44.4259H48.1588V37.9984ZM47.2626 37.0582V45.3666H49.355C49.5495 45.3666 49.7691 45.3565 50.015 45.3383C50.2701 45.3178 50.5219 45.2672 50.7652 45.1877C51.2872 45.0159 51.7607 44.6448 52.1861 44.0733C52.6115 43.5022 52.8239 42.5419 52.8239 41.1909V40.9946C52.8239 40.9307 52.82 40.8697 52.8129 40.8093C52.775 39.8691 52.5382 39.0091 52.102 38.2286C51.6651 37.4487 50.8616 37.0585 49.6907 37.0585H47.2626V37.0582ZM46.807 33.2561V33.106H47.8534V33.2561H47.4197V34.4388H47.24V33.2561H46.807ZM48.3961 33.32H48.3927L48.3961 33.3699V34.4388H48.2164V33.106H48.4839L48.9011 34.2031L49.3182 33.106H49.5859V34.4388H49.4059V33.3699L49.4116 33.32H49.4059L48.9727 34.4388H48.8296L48.3961 33.32Z" fill="#3B5998"/>
</svg>
