<svg width="136" height="52" viewBox="0 0 136 52" fill="none" xmlns="http://www.w3.org/2000/svg">
<path d="M18.3975 19.0135C18.3975 19.0135 18.3975 18.9453 18.6752 18.9453C21.0353 19.0135 26.7969 19.4224 33.1139 21.0581C41.3745 23.171 44.5676 25.0112 41.9298 25.5564C39.292 26.1017 29.1571 25.829 18.3281 32.5764C17.5645 33.0535 16.4538 33.6669 13.6077 32.8491C12.5665 32.5083 11.2476 32.0994 9.65099 31.2815C2.98698 27.8737 21.5907 25.5564 24.8533 25.1475C28.6018 24.6704 32.4197 24.3296 29.0183 22.4894C28.1853 22.0805 26.0334 20.9218 18.6058 19.1498C18.6058 19.1498 18.3281 19.0816 18.3975 19.0135ZM62.616 20.3766C62.8242 19.7632 63.1713 19.3542 64.5597 19.3542H68.3082C70.6683 19.3542 72.1955 19.7632 73.0285 20.6492C73.5838 21.1944 73.7921 21.9442 73.6533 22.9665C73.445 25.3519 72.1955 26.7151 69.4883 27.5329L69.3494 27.6011L71.2237 32.4401C71.2931 32.5764 71.1543 32.7809 71.0154 32.7809H68.7247C68.0999 32.7809 67.5446 32.4401 67.3363 31.8949L65.948 28.2826H63.7267L62.4077 32.5083C62.3383 32.7128 62.1301 32.8491 61.9218 32.8491H59.0757C58.9369 32.8491 58.7981 32.7128 58.8675 32.5764L62.616 20.3766ZM65.6703 21.9442L64.4902 25.6246H66.7116C68.447 25.6246 69.9048 25.6246 70.113 23.4436C70.1824 23.0347 70.0436 22.6939 69.8353 22.4894C69.4883 22.0805 68.7941 21.9442 67.5446 21.9442H65.6703ZM92.6735 32.9172C90.8686 32.9172 89.272 32.2357 88.439 31.2133C87.8143 30.3955 87.606 29.305 87.9531 28.1463L88.6473 25.6927C90.0356 20.9218 92.1875 19.2861 97.0467 19.2861H97.255C99.0598 19.2861 100.656 19.9676 101.489 20.99C102.114 21.8079 102.322 22.8983 101.975 24.057L101.281 26.5106C99.8928 31.2815 98.4351 32.9172 92.8817 32.9172H92.6735ZM96.2831 22.0805C94.2701 22.1486 93.0205 23.171 92.3264 25.6246L91.7016 27.8056C91.6322 28.1463 91.5628 28.419 91.5628 28.6916C91.7016 29.5776 92.3958 30.0547 93.6453 30.0547C95.6584 30.0547 96.9079 28.9642 97.6021 26.5106L98.2268 24.3296C98.2962 23.9888 98.3656 23.7162 98.3656 23.4436C98.2268 22.5576 97.5326 22.0805 96.2831 22.0805ZM103.988 32.7128C104.197 32.7128 104.405 32.5764 104.474 32.372L106.14 27.0558C106.349 27.0558 106.487 27.1921 106.557 27.3285L108.917 31.8949C109.195 32.4401 109.75 32.7128 110.305 32.7128H112.804C112.943 32.7128 113.082 32.5083 113.013 32.372L110.028 26.5787C109.958 26.4424 109.958 26.238 110.097 26.1698L117.316 19.6269C117.455 19.5587 117.386 19.3542 117.178 19.3542H114.262C113.776 19.3542 113.29 19.5587 112.943 19.8995L107.251 25.1475C107.112 25.2838 106.904 25.3519 106.696 25.3519L108.5 19.6269C108.57 19.4906 108.431 19.2861 108.292 19.2861H105.377C105.168 19.2861 104.96 19.4224 104.96 19.6269L100.934 32.372C100.865 32.5083 101.003 32.6446 101.142 32.6446H103.988V32.7128ZM125.855 22.0123H122.939C121.829 22.0123 120.857 22.2168 120.718 23.4436C120.648 23.9888 121.065 24.1933 121.898 24.5341L124.328 25.3519C125.716 25.829 126.41 26.9195 126.271 28.2826C125.855 31.963 123.078 32.7128 119.121 32.7128H114.609C114.401 32.7128 114.262 32.5764 114.262 32.372C114.54 30.0547 116.969 30.1228 116.969 30.1228H119.954C121.551 30.1228 122.384 29.5094 122.523 28.3508C122.592 27.7374 122.245 27.3285 121.343 26.9877L118.982 26.1698C117.664 25.6246 116.969 24.6704 117.108 23.5799C117.525 20.104 120.024 19.4224 123.911 19.4224H128.354C128.562 19.4224 128.701 19.5587 128.631 19.7632C128.423 20.4447 127.937 22.0123 125.855 22.0123ZM78.443 32.9172C76.6382 32.9172 75.0416 32.2357 74.2086 31.2133C73.5838 30.3955 73.3756 29.305 73.7227 28.1463L74.4169 25.6927C75.8052 20.9218 77.9571 19.2861 82.8163 19.2861H83.0245C84.8294 19.2861 86.426 19.9676 87.259 20.99C87.8837 21.8079 88.092 22.8983 87.7449 24.057L87.0507 26.5106C85.6624 31.2815 84.2046 32.9172 78.6513 32.9172H78.443ZM81.9833 22.0805C79.9702 22.1486 78.7207 23.171 78.0265 25.6246L77.4712 27.8056C77.4018 28.1463 77.3324 28.419 77.3324 28.6916C77.4712 29.5776 78.1654 30.0547 79.4149 30.0547C81.4279 30.0547 82.6775 28.9642 83.3716 26.5106L83.9964 24.3296C84.0658 23.9888 84.1352 23.7162 84.1352 23.4436C83.9964 22.5576 83.3022 22.0805 81.9833 22.0805ZM55.3272 19.4224C57.3403 19.4224 58.7981 19.8995 59.5617 20.7174C60.0476 21.1944 60.2558 21.876 60.1864 22.6257C60.0476 24.1933 59.284 25.0793 57.3403 25.829L57.1321 25.8972L57.3403 26.0335C58.1733 26.5106 58.5898 27.3966 58.5204 28.419C58.1039 32.7128 54.4248 32.7128 50.5375 32.7128H47.4137C46.7196 32.7128 45.956 32.7809 45.6783 32.5083C45.2618 32.0994 45.5395 31.486 45.5395 31.486L49.0103 20.3766C49.2186 19.7632 49.5656 19.3542 50.954 19.3542L55.3272 19.4224ZM51.9952 30.191C53.3141 30.191 54.9107 30.3273 55.0496 28.6234C55.0496 28.2145 54.9802 27.8737 54.7719 27.6011C54.4248 27.2603 53.8695 27.124 53.0365 27.124H50.4681L49.4962 30.191H51.9952ZM51.0928 24.7385H53.6612C55.3272 24.7385 56.4379 24.5341 56.5767 23.171C56.6462 22.8302 56.5767 22.5576 56.3685 22.3531C56.0214 21.9442 55.2578 21.9442 53.7306 21.9442H51.9258L51.0928 24.7385Z" fill="#3B5998"/>
</svg>
