<?xml version="1.0" standalone="no"?> <!DOCTYPE svg PUBLIC "-//W3C//DTD SVG 1.0//EN" "http://www.w3.org/TR/2001/REC-SVG-20010904/DTD/svg10.dtd" > <svg xmlns="http://www.w3.org/2000/svg" width="100%" height="100%">
<defs >
<font horiz-adv-x="548" ><font-face
    font-family="THICCCBOI"
    units-per-em="1000"
    panose-1="0 0 8 0 0 0 0 0 0 0"
    ascent="913"
    descent="-240"
    alphabetic="0" />
<missing-glyph horiz-adv-x="485" d="M418 -90H67V752H418V-90ZM386 -60V722H98V-60H386Z" />
<glyph unicode=" " glyph-name="space" horiz-adv-x="257" />
<glyph unicode="!" glyph-name="exclam" horiz-adv-x="262" d="M187 215H78L57 700H207L187 215ZM61 95T79 114T132 133Q166 133 184 115T202 61Q202 26 184 8T132 -11Q98 -11 80 8T61 61Q61 95 79 114Z" />
<glyph unicode="&quot;" glyph-name="quotedbl" horiz-adv-x="396" d="M96 379L64 565V674H175V565L143 379H96ZM221 565V674H333V565L300 379H253L221 565Z" />
<glyph unicode="#" glyph-name="numbersign" horiz-adv-x="616" d="M336 0H244L302 170H205L149 0H57L114 170H17L43 249H141L196 417H98L122 495H223L280 667H372L315 495H410L467 667H559L501 495H599L576 417H475L419 249H521L496 170H392L336 0ZM327 249L383
417H288L233 249H327Z" />
<glyph unicode="$" glyph-name="dollar" horiz-adv-x="613" d="M267 768H359V674Q481 660 562 584L485 486Q429 540 353 552V404Q422 387 469 366T547 304T578 201Q578 111 520 56T359 -9V-100H267V-10Q120 1 31 94L107 196Q176 122 278 109V275Q209 291 162 311T84
371T53 476Q53 527 79 570T153 641T267 675V768ZM194 463T214 448T278 421V559Q239 557 217 538T194 489Q194 463 214 448ZM353 109Q392 114 414 133T437 185Q437 215 417 230T353 259V109Z" />
<glyph unicode="%" glyph-name="percent" horiz-adv-x="756" d="M145 345T107 366T47 426T26 510Q26 557 47 595T106 655T195 677Q245 677 283 655T343 595T365 510Q365 464 344 426T284 367T195 345Q145 345 107 366ZM204 0H130L556 667H631L204 0ZM230 421T253
445T276 510Q276 552 253 576T195 601Q160 601 138 577T115 510Q115 470 137 446T195 421Q230 421 253 445ZM511 -12T473 9T413 69T392 153Q392 200 413 238T472 298T561 320Q611 320 649 298T708 238T730 153Q730 107 709 69T650 10T561 -12Q511 -12 473 9ZM596
64T619 88T642 153Q642 195 619 219T561 244Q525 244 503 220T480 153Q480 113 502 89T561 64Q596 64 619 88Z" />
<glyph unicode="&amp;" glyph-name="ampersand" horiz-adv-x="650" d="M107 494T123 462T178 382Q105 341 66 294T26 183Q26 92 91 44T260 -5Q304 -5 363 14T474 74L542 0H697L546 155Q566 195 575 232T584 319H466Q466 274 453 248L353 360Q414 404 441 441T468
530Q468 602 422 640T294 679Q211 679 159 640T107 531Q107 494 123 462ZM351 582T351 530Q351 499 333 479T276 434Q253 460 239 481T225 528Q225 557 241 569T294 582Q351 582 351 530ZM390 158Q331 98 260 98Q209 98 179 120T149 183Q149 220 171 246T254 307L390
158Z" />
<glyph unicode="&apos;" glyph-name="quotesingle" horiz-adv-x="186" d="M54 591V700H166V591L134 405H87L54 591Z" />
<glyph unicode="(" glyph-name="parenleft" horiz-adv-x="294" d="M199 -94Q126 -11 84 108T41 348Q41 469 83 588T199 790L276 732Q222 632 199 544T175 348Q175 240 198 152T276 -34L199 -94Z" />
<glyph unicode=")" glyph-name="parenright" horiz-adv-x="294" d="M96 790Q169 707 211 588T253 348Q253 228 211 109T96 -94L18 -34Q72 63 96 151T120 348Q120 456 97 544T18 732L96 790Z" />
<glyph unicode="*" glyph-name="asterisk" horiz-adv-x="351" d="M26 472L123 522L26 573L57 626L149 567L144 677H206L201 567L293 626L325 573L227 522L325 472L293 419L201 478L206 368H144L149 478L57 419L26 472Z" />
<glyph unicode="+" glyph-name="plus" horiz-adv-x="504" d="M475 299H294V95H210V299H29V376H210V572H294V376H475V299Z" />
<glyph unicode="," glyph-name="comma" horiz-adv-x="254" d="M106 -9Q76 -1 67 12T57 61Q57 95 75 114T128 133Q162 133 181 114T200 59Q199 20 191 -4T157 -63L107 -131L67 -98L106 -9Z" />
<glyph unicode="-" glyph-name="hyphen" horiz-adv-x="300" d="M270 190H30V295H270V190Z" />
<glyph unicode="." glyph-name="period" horiz-adv-x="256" d="M61 88T78 105T128 123Q160 123 177 106T194 56Q194 24 177 6T128 -12Q96 -12 79 6T61 56Q61 88 78 105Z" />
<glyph unicode="/" glyph-name="slash" horiz-adv-x="327" d="M237 687H327L90 -20H0L237 687Z" />
<glyph unicode="0" glyph-name="zero" horiz-adv-x="601" d="M214 -13T150 32T51 160T16 350Q16 458 50 540T149 667T301 713Q388 713 452 668T550 540T585 350Q585 242 551 160T452 33T301 -13Q214 -13 150 32ZM372 118T413 175T455 350Q455 467 414 524T301
582Q230 582 189 525T147 350Q147 233 188 176T301 118Q372 118 413 175Z" />
<glyph unicode="1" glyph-name="one" horiz-adv-x="601" d="M373 700V124H563V0H38V124H242V560L133 494L65 596L242 699V700H373Z" />
<glyph unicode="2" glyph-name="two" horiz-adv-x="601" d="M564 124V1H43V31Q50 130 101 223T257 358Q279 368 290 372Q340 393 367 407T413 442T432 491Q432 524 414 547T367 583T311 595Q250 595 207 571T155 496L32 509Q41 573 81 619T181 689T311 713Q373
713 430 687T522 612T557 497Q557 431 526 387T443 315T306 253Q230 223 197 124H564Z" />
<glyph unicode="3" glyph-name="three" horiz-adv-x="601" d="M511 343T534 301T557 208Q557 146 523 96T429 18T296 -11Q228 -11 171 15T78 86T40 189L175 199Q184 161 218 136T296 111Q353 111 390 140T427 214Q427 259 390 288T296 317H259L260 423H296Q346
423 378 447T411 509Q411 547 378 571T294 596Q258 596 227 579T183 535L54 543Q61 591 94 630T180 691T294 713Q364 713 419 687T506 614T538 509Q538 468 521 433T470 372Q511 343 534 301Z" />
<glyph unicode="4" glyph-name="four" horiz-adv-x="601" d="M497 260H572V136H497V0H367V136H24V260L243 700H388L170 260H367V416H497V260Z" />
<glyph unicode="5" glyph-name="five" horiz-adv-x="601" d="M305 435Q422 435 490 380T558 227Q558 116 490 53T305 -11Q188 -11 118 41T41 184L165 199Q174 158 211 135T305 111Q366 111 401 142T436 227Q436 272 401 298T305 324H167V326L72 324L119 700H533V576H228L210
435H305Z" />
<glyph unicode="6" glyph-name="six" horiz-adv-x="601" d="M374 485T434 453T528 364T563 236Q563 165 529 108T434 19T298 -13Q223 -13 163 19T68 108T34 236Q34 305 67 362H66L278 700H429L294 485H298Q374 485 434 453ZM354 116T391 150T428 236Q428 287 391
322T298 357Q244 357 206 322T168 236Q168 184 206 150T298 116Q354 116 391 150Z" />
<glyph unicode="7" glyph-name="seven" horiz-adv-x="601" d="M44 576V700H558V606L287 0H145L401 576H44Z" />
<glyph unicode="8" glyph-name="eight" horiz-adv-x="601" d="M561 315T561 204Q561 103 492 45T301 -13Q179 -13 110 45T40 204Q40 315 129 365Q56 410 56 507Q56 603 121 658T301 713Q414 713 479 658T545 507Q545 410 473 365Q561 315 561 204ZM246 596T215
572T183 507Q183 466 214 443T301 419Q356 419 387 442T418 507Q418 548 387 572T301 596Q246 596 215 572ZM363 107T400 135T438 212Q438 260 401 286T301 312Q238 312 201 286T163 212Q163 163 201 135T301 107Q363 107 400 135Z" />
<glyph unicode="9" glyph-name="nine" horiz-adv-x="601" d="M561 385T521 327L316 0H166L301 215H297Q221 215 161 247T66 336T32 464Q32 536 66 592T160 681T297 713Q373 713 433 681T527 593T561 464Q561 385 521 327ZM167 413T204 378T297 343Q351 343 388
378T426 464Q426 516 389 550T297 585Q241 585 204 550T167 464Q167 413 204 378Z" />
<glyph unicode=":" glyph-name="colon" horiz-adv-x="254" d="M57 452T75 470T128 489Q162 489 180 471T198 418Q198 383 180 365T128 346Q94 346 76 364T57 418Q57 452 75 470ZM57 95T75 114T128 133Q162 133 180 115T198 61Q198 26 180 8T128 -11Q94 -11 76
7T57 61Q57 95 75 114Z" />
<glyph unicode=";" glyph-name="semicolon" horiz-adv-x="254" d="M57 452T75 470T128 489Q162 489 180 471T198 418Q198 383 180 365T128 346Q94 346 76 364T57 418Q57 452 75 470ZM106 -9Q76 -1 67 12T57 61Q57 95 75 114T128 133Q162 133 181 114T200 59Q199
20 191 -4T157 -63L107 -131L67 -98L106 -9Z" />
<glyph unicode="&lt;" glyph-name="less" horiz-adv-x="504" d="M475 90L29 290V379L475 580V488L118 334L475 182V90Z" />
<glyph unicode="=" glyph-name="equal" horiz-adv-x="504" d="M475 390H29V467H475V390ZM475 201H29V278H475V201Z" />
<glyph unicode="&gt;" glyph-name="greater" horiz-adv-x="504" d="M475 290L29 90V182L386 334L29 488V580L475 379V290Z" />
<glyph unicode="?" glyph-name="question" horiz-adv-x="456" d="M162 212V327Q162 372 182 399T241 458Q268 479 281 494T295 531Q295 558 275 574T214 591Q140 591 88 528L10 616Q50 664 107 688T229 713Q324 713 380 670T436 555Q436 517 423 489T392 443T344
399Q313 374 298 356T282 313V212H162ZM151 95T169 114T222 133Q256 133 274 115T292 61Q292 26 274 8T222 -11Q188 -11 170 7T151 61Q151 95 169 114Z" />
<glyph unicode="@" glyph-name="at" horiz-adv-x="869" d="M797 426T797 379Q797 359 796 349L785 225Q781 185 760 150T706 93T637 72Q608 72 583 82T541 112L537 117Q499 95 457 95H406Q370 95 337 109T280 149Q256 175 245 210T237 280L240 309Q243 356 270
396T340 461T431 485H481Q524 485 557 464L637 463L626 343Q627 340 627 335T626 327L619 243L616 222L614 204Q616 196 622 190T636 183Q642 183 648 186Q661 190 670 204T680 234L691 358Q692 366 692 381Q692 449 654 492Q628 519 591 531T516 543L414 544Q320
544 257 489Q193 434 185 341L175 221Q174 214 174 202Q174 135 216 88Q242 61 278 46T359 31H509V-74H359Q293 -74 237 -51T139 17Q105 54 87 102T69 203Q69 221 70 230L81 350Q88 437 133 505T251 611T414 649H513Q580 648 636 626T731 563Q768 523 785 468Q797
426 797 379ZM466 200Q486 200 503 216T523 253L530 336V340Q530 357 520 367Q507 380 490 380H439Q407 380 381 356T353 299L350 271Q348 242 367 220Q385 200 415 200H466Z" />
<glyph unicode="A" glyph-name="A" horiz-adv-x="676" d="M668 0H529L477 141H200L148 0H8L268 700H408L668 0ZM339 513L246 265H431L339 513Z" />
<glyph unicode="B" glyph-name="B" horiz-adv-x="621" d="M552 343T571 301T591 212Q591 155 564 107T490 30T388 1H202V0H71V700H372Q424 700 468 673T538 601T564 503Q564 468 552 435T517 373Q552 343 571 301ZM202 576V419L372 420Q401 420 422 442T444 498Q444
532 423 554T372 576H202ZM388 125Q420 125 443 151T467 213Q467 248 444 274T388 301H202V125H388Z" />
<glyph unicode="C" glyph-name="C" horiz-adv-x="747" d="M38 446T86 529T218 660T399 709Q499 709 584 658T715 521L600 460Q570 513 516 545T399 578Q337 578 284 547T199 463T168 348Q168 286 199 233T283 149T399 118Q464 118 517 151T601 239L716 176Q670
90 585 39T399 -13Q301 -13 218 35T87 167T38 348Q38 446 86 529Z" />
<glyph unicode="D" glyph-name="D" horiz-adv-x="746" d="M447 700T529 654T660 527T708 348Q708 250 660 171T530 46T349 0H71V700H349Q447 700 529 654ZM349 124Q412 124 464 153T546 235T577 349Q577 411 547 463T464 546T349 576H202V124H349Z" />
<glyph unicode="E" glyph-name="E" horiz-adv-x="531" d="M202 294V124H495V0H71V700H490V576H202V417H465V294H202Z" />
<glyph unicode="F" glyph-name="F" horiz-adv-x="529" d="M490 700V576H202V408H479V284H202V0H71V700H490Z" />
<glyph unicode="G" glyph-name="G" horiz-adv-x="787" d="M374 370H751V312Q751 224 704 150T575 31T399 -13Q301 -13 218 35T87 167T38 348Q38 446 86 529T218 660T399 709Q489 709 566 667T693 554L590 474Q559 521 508 549T399 578Q337 578 284 547T199 463T168
348Q168 286 199 233T283 149T399 118Q471 118 525 153T604 246H374V370Z" />
<glyph unicode="H" glyph-name="H" horiz-adv-x="727" d="M525 420V700H655V0H525V297H202V0H71V700H202V420H525Z" />
<glyph unicode="I" glyph-name="I" horiz-adv-x="273" d="M72 0V700H202V0H72Z" />
<glyph unicode="J" glyph-name="J" horiz-adv-x="574" d="M379 700H509V221Q509 154 478 101T391 17T262 -13Q184 -13 127 20T36 116L143 177Q166 138 194 121T267 104Q321 104 350 133T379 221V700Z" />
<glyph unicode="K" glyph-name="K" horiz-adv-x="661" d="M657 1L494 0L271 279L202 199V0H71V700H202V400L465 700H633L358 380L657 1Z" />
<glyph unicode="L" glyph-name="L" horiz-adv-x="513" d="M202 700V124H497V0H71V700H202Z" />
<glyph unicode="M" glyph-name="M" horiz-adv-x="824" d="M622 698V700H752V0H622V462L428 137H396L202 462V0H71V700H202V698L205 700L412 351L619 700L622 698Z" />
<glyph unicode="N" glyph-name="N" horiz-adv-x="689" d="M487 260V700H618V0H506L202 474V0H71V700H202L487 260Z" />
<glyph unicode="O" glyph-name="O" horiz-adv-x="797" d="M301 -13T218 35T87 167T38 348Q38 446 86 529T218 660T399 709Q497 709 580 661T711 529T760 348Q760 250 712 167T580 36T399 -13Q301 -13 218 35ZM461 118T514 149T598 233T629 348Q629 410 598 463T514
547T399 578Q337 578 284 547T199 463T168 348Q168 286 199 233T283 149T399 118Q461 118 514 149Z" />
<glyph unicode="P" glyph-name="P" horiz-adv-x="584" d="M388 700T441 670T524 586T555 471Q555 409 525 357T441 273T326 242H202V0H71V700H326Q388 700 441 670ZM326 367Q369 367 399 397T430 471Q430 514 400 545T326 576H202V367H326Z" />
<glyph unicode="Q" glyph-name="Q" horiz-adv-x="815" d="M760 286T740 230T683 125L755 53L663 -40L585 38Q497 -13 399 -13Q301 -13 218 35T87 167T38 348Q38 446 86 529T218 660T399 709Q497 709 580 661T711 529T760 348Q760 286 740 230ZM447 118T487 136L406
217L499 310L590 219Q629 279 629 348Q629 410 598 463T514 547T399 578Q337 578 284 547T199 463T168 348Q168 286 199 233T283 149T399 118Q447 118 487 136Z" />
<glyph unicode="R" glyph-name="R" horiz-adv-x="637" d="M469 0L332 242H202V0H71V700H355Q417 700 470 670T553 586T584 471Q584 407 552 354T466 271L618 0H469ZM202 576V367H355Q398 367 429 397T460 471Q460 515 430 545T355 576H202Z" />
<glyph unicode="S" glyph-name="S" horiz-adv-x="582" d="M201 -13T131 33T33 157L143 222Q184 115 307 115Q362 115 392 141T422 201Q422 235 390 256T274 301Q209 321 164 344T91 408T62 509Q62 571 93 617T175 688T288 713Q373 713 435 673T532 559L420 495Q381
584 288 584Q246 584 219 562T192 510Q192 487 204 471T244 442T325 413Q394 391 441 367T520 301T552 194Q552 131 520 84T432 12T304 -13Q201 -13 131 33Z" />
<glyph unicode="T" glyph-name="T" horiz-adv-x="546" d="M531 700V576H338V0H208V576H16V700H531Z" />
<glyph unicode="U" glyph-name="U" horiz-adv-x="666" d="M471 700H602V236Q602 163 567 107T471 19T333 -13Q256 -13 195 18T99 106T64 236V700H195V236Q195 182 234 150T333 117Q396 117 433 149T471 236V700Z" />
<glyph unicode="V" glyph-name="V" horiz-adv-x="644" d="M322 185L501 700H639L396 0H249L6 700H144L322 185Z" />
<glyph unicode="W" glyph-name="W" horiz-adv-x="994" d="M709 206L840 700H975L782 0H641L497 478L353 0H212L19 700H154L285 206L429 700H565L709 206Z" />
<glyph unicode="X" glyph-name="X" horiz-adv-x="674" d="M428 351L655 0H499L337 251L175 0H19L246 351L20 700H176L337 451L498 700H654L428 351Z" />
<glyph unicode="Y" glyph-name="Y" horiz-adv-x="643" d="M322 401L491 700H639L387 250V0H256V252L4 700H152L322 401Z" />
<glyph unicode="Z" glyph-name="Z" horiz-adv-x="534" d="M501 603L202 124H505V0H39V97L338 576H42V700H501V603Z" />
<glyph unicode="[" glyph-name="bracketleft" horiz-adv-x="278" d="M136 5H260V-78H47V790H260V708H136V5Z" />
<glyph unicode="\" glyph-name="backslash" horiz-adv-x="327" d="M237 -20L0 687H90L327 -20H237Z" />
<glyph unicode="]" glyph-name="bracketright" horiz-adv-x="278" d="M18 790H231V-78H18V5H142V708H18V790Z" />
<glyph unicode="^" glyph-name="asciicircum" horiz-adv-x="440" d="M421 333H330L220 583L111 333H19L176 667H266L421 333Z" />
<glyph unicode="_" glyph-name="underscore" horiz-adv-x="564" d="M-3 -40H567V-123H-3V-40Z" />
<glyph unicode="`" glyph-name="grave" horiz-adv-x="249" d="M0 700H114L249 556H163L0 700Z" />
<glyph unicode="a" glyph-name="a" horiz-adv-x="644" d="M456 500H580V0H456V49Q421 19 380 3T292 -14Q216 -14 159 20T72 114T41 249Q41 324 71 384T159 478T292 513Q338 513 379 497T456 450V500ZM349 105T382 123T435 175T455 250Q455 313 413 353T308 393Q245
393 205 353T164 249Q164 186 204 146T308 105Q349 105 382 123Z" />
<glyph unicode="b" glyph-name="b" horiz-adv-x="663" d="M438 513T495 479T582 384T613 249Q613 174 583 114T495 20T362 -14Q313 -14 268 5T188 58V0H64V700H188V441Q223 475 268 494T362 513Q438 513 495 479ZM409 105T449 145T490 249Q490 312 450 352T346
393Q284 393 242 353T199 250Q199 208 218 175T271 124T346 105Q409 105 449 145Z" />
<glyph unicode="c" glyph-name="c" horiz-adv-x="532" d="M513 97Q476 46 420 16T299 -14Q228 -14 168 21T72 117T36 249Q36 320 71 380T167 476T299 512Q363 512 419 483T512 403L410 334Q363 389 299 389Q261 389 229 370T178 319T159 249Q159 211 178 179T229
129T299 110Q363 110 410 165L513 97Z" />
<glyph unicode="d" glyph-name="d" horiz-adv-x="643" d="M455 700H579V0H455V48Q421 18 379 2T292 -14Q216 -14 159 20T72 114T41 249Q41 324 71 384T159 478T292 513Q337 513 378 497T455 451V700ZM349 105T382 123T435 175T455 250Q455 313 413 353T308 393Q245
393 205 353T164 249Q164 186 204 146T308 105Q349 105 382 123Z" />
<glyph unicode="e" glyph-name="e" horiz-adv-x="584" d="M371 513T428 478T518 382T550 249Q550 225 546 205H160Q175 152 213 123T310 93Q346 93 379 109T430 150L525 94Q490 42 435 15T307 -13Q227 -13 165 21T70 115T36 250Q36 324 69 384T163 478T299 513Q371
513 428 478ZM434 302Q426 350 390 377T298 405Q260 405 229 391T178 353T158 302H434Z" />
<glyph unicode="f" glyph-name="f" horiz-adv-x="343" d="M343 595Q318 598 298 598Q263 598 247 585T231 537V500H342V389H231V0H107V389H24V500H107V545Q107 640 146 676T264 713Q295 713 343 708V595Z" />
<glyph unicode="g" glyph-name="g" horiz-adv-x="645" d="M457 500H581V25Q581 -46 546 -100T447 -183T306 -213Q219 -213 148 -180T48 -92L154 -31Q169 -60 210 -79T309 -99Q373 -99 415 -65T457 25V48Q423 18 381 2T294 -14Q218 -14 161 20T74 114T43 249Q43
324 73 384T161 478T294 513Q339 513 380 497T457 451V500ZM351 105T384 123T437 175T457 250Q457 313 415 353T310 393Q247 393 207 353T166 249Q166 186 206 146T310 105Q351 105 384 123Z" />
<glyph unicode="h" glyph-name="h" horiz-adv-x="570" d="M514 0H391V296Q391 352 360 376T285 401Q251 401 224 380T188 313V0H64V700H188V458Q213 482 245 496T315 510Q359 510 404 492T481 426T514 299V0Z" />
<glyph unicode="i" glyph-name="i" horiz-adv-x="249" d="M93 583T73 602T53 654Q53 688 73 707T128 726Q163 726 183 707T203 654Q203 622 183 603T128 583Q93 583 73 602ZM65 0V500H189V0H65Z" />
<glyph unicode="j" glyph-name="j" horiz-adv-x="274" d="M115 571T95 590T74 643Q74 676 94 695T149 714Q184 714 204 695T224 643Q224 610 204 591T149 571Q115 571 95 590ZM87 500H211V-21Q211 -84 183 -129T103 -196T-14 -213V-94Q-6 -95 8 -95Q49 -95 68
-78T87 -21V500Z" />
<glyph unicode="k" glyph-name="k" horiz-adv-x="566" d="M556 0H401L261 187L188 107V0H64V700H188V289L376 500H549L345 278L556 0Z" />
<glyph unicode="l" glyph-name="l" horiz-adv-x="282" d="M188 125T196 118T221 111Q234 111 252 114V0Q215 -6 183 -6Q125 -6 95 24T64 133V700H188V141Q188 125 196 118Z" />
<glyph unicode="m" glyph-name="m" horiz-adv-x="894" d="M685 513T730 495T807 428T840 299V0H717V299Q717 355 686 379T612 404Q576 404 549 383T514 314V299V0H391V299Q391 355 360 379T285 404Q251 404 224 383T188 316V0H64V500H188V461Q213 485 245 499T315
513Q361 513 408 493T483 426Q509 463 551 488T641 513Q685 513 730 495Z" />
<glyph unicode="n" glyph-name="n" horiz-adv-x="572" d="M362 513T407 495T485 428T518 299V0H394V299Q394 355 363 379T289 404Q247 404 218 375T188 280V0H64V500H188V458Q215 483 248 498T318 513Q362 513 407 495Z" />
<glyph unicode="o" glyph-name="o" horiz-adv-x="597" d="M228 -14T168 21T72 117T36 249Q36 320 71 380T167 476T299 512Q370 512 430 477T526 381T562 249Q562 178 527 118T431 22T299 -14Q228 -14 168 21ZM336 110T368 128T419 179T438 249Q438 287 419 319T368
370T298 389Q260 389 228 370T178 319T159 249Q159 211 177 179T228 129T298 110Q336 110 368 128Z" />
<glyph unicode="p" glyph-name="p" horiz-adv-x="643" d="M427 513T484 479T572 385T603 250Q603 175 573 115T485 21T351 -14Q306 -14 265 2T188 49V-200H64V500H188V451Q222 481 264 497T351 513Q427 513 484 479ZM398 106T438 146T479 250Q479 313 439 353T336
394Q295 394 261 376T208 324T188 249Q188 186 230 146T336 106Q398 106 438 146Z" />
<glyph unicode="q" glyph-name="q" horiz-adv-x="643" d="M455 500H579V-200H455V48Q420 19 379 3T292 -14Q216 -14 159 20T72 115T41 250Q41 325 71 385T159 479T292 513Q337 513 379 497T455 451V500ZM370 106T412 146T455 249Q455 291 436 324T383 375T308
394Q245 394 205 354T164 250Q164 187 204 147T308 106Q370 106 412 146Z" />
<glyph unicode="r" glyph-name="r" horiz-adv-x="380" d="M361 510L352 393Q346 395 331 395Q269 395 229 359T188 261V0H64V500H188V416Q205 456 246 483T345 510H361Z" />
<glyph unicode="s" glyph-name="s" horiz-adv-x="495" d="M172 339T195 329T270 307Q328 295 367 280T434 233T463 145Q463 96 434 60T355 6T248 -13Q169 -13 113 17T29 103L131 156Q158 87 248 87Q287 87 315 102T343 145Q343 169 318 180T235 206Q176 220 139
234T75 277T48 356Q48 404 75 439T148 494T249 513Q314 513 365 486T445 409L344 358Q318 414 249 414Q214 414 193 400T172 360Q172 339 195 329Z" />
<glyph unicode="t" glyph-name="t" horiz-adv-x="394" d="M237 137T253 124T304 111Q325 111 350 114V0Q303 -5 272 -5Q192 -5 153 31T113 163V389H19V500H113V623L237 665V500H348V389H237V171Q237 137 253 124Z" />
<glyph unicode="u" glyph-name="u" horiz-adv-x="567" d="M379 500H503V0H379V42Q352 17 319 2T249 -13Q205 -13 160 5T82 72T49 201V500H173V201Q173 145 204 121T278 96Q320 96 349 125T379 220V500Z" />
<glyph unicode="v" glyph-name="v" horiz-adv-x="536" d="M268 150L399 500H530L344 0H192L6 500H137L268 150Z" />
<glyph unicode="w" glyph-name="w" horiz-adv-x="783" d="M545 197L638 500H768L606 0H483L389 297L295 0H174L16 500H145L235 199L323 500H455L545 197Z" />
<glyph unicode="x" glyph-name="x" horiz-adv-x="535" d="M374 500H526L344 250L526 0L374 -1L268 145L161 -1L9 0L191 250L9 500H161L268 354L374 500Z" />
<glyph unicode="y" glyph-name="y" horiz-adv-x="533" d="M397 500H527L352 -1Q313 -104 245 -155T83 -200V-80Q89 -81 101 -81Q181 -81 226 16L6 500H139L286 182L397 500Z" />
<glyph unicode="z" glyph-name="z" horiz-adv-x="484" d="M436 420L217 118H446V0H46V80L268 383H56V500H436V420Z" />
<glyph unicode="{" glyph-name="braceleft" horiz-adv-x="287" d="M4 390Q29 390 42 408T56 457V631Q56 678 77 714T133 769T209 789H269V707H209Q182 707 164 686T145 632V445Q145 375 100 355Q145 337 145 266V79Q145 47 163 26T209 4H269V-79H209Q169 -79 134
-60T77 -4T56 79V253Q56 283 43 301T4 320V390Z" />
<glyph unicode="|" glyph-name="bar" horiz-adv-x="216" d="M149 -80H67V747H149V-80Z" />
<glyph unicode="}" glyph-name="braceright" horiz-adv-x="286" d="M283 320Q258 320 245 302T231 253V79Q231 32 210 -4T154 -59T78 -79H17V4H78Q104 4 122 25T141 79V266Q141 336 187 355Q141 375 141 445V632Q141 665 123 686T78 707H17V789H78Q118 789 153
770T210 714T231 631V457Q231 427 244 409T283 390V320Z" />
<glyph unicode="~" glyph-name="asciitilde" horiz-adv-x="510" d="M484 657Q475 548 443 481T336 413Q301 413 279 429T246 467T223 525Q211 559 202 574T175 590Q148 590 133 541T111 412L26 422Q36 534 68 600T175 666Q210 666 232 650T265 611T289 553Q301
519 310 504T336 488Q367 488 380 538T400 667L484 657Z" />
</font>
</defs>
</svg>
